<?xml version="1.0" encoding="UTF-8" standalone="no"?><svg xmlns="http://www.w3.org/2000/svg" xmlns:xlink="http://www.w3.org/1999/xlink" contentScriptType="application/ecmascript" contentStyleType="text/css" height="337.5px" preserveAspectRatio="none" style="width:486px;height:337px;background:#333333;" version="1.1" viewBox="0 0 486 337" width="486.4583px" zoomAndPan="magnify"><defs/><g><rect fill="#48494B" height="41.2028" rx="8.3333" ry="8.3333" style="stroke:#545454;stroke-width:1.0416666666666667;" width="343.75" x="64.0625" y="2.0833"/><text fill="#C0C0C0" font-family="Open Sans,Avenir,Nunito,Arial,Helvetica,SansSerif" font-size="20.8333" lengthAdjust="spacing" textLength="320.8333" x="75.5208" y="30.5583">com.telenav.lexakai.annotations</text><!--MD5=[d0079b741f6174c4159a5974a481e5d9]
cluster UmlNote--><polygon fill="#333333" points="362.5,52.6611,431.25,52.6611,438.5417,79.8828,468.75,79.8828,468.75,237.0361,362.5,237.0361,362.5,52.6611" style="stroke:#333333;stroke-width:2.0833333333333335;"/><line style="stroke:#333333;stroke-width:2.0833333333333335;" x1="362.5" x2="438.5417" y1="79.8828" y2="79.8828"/><text fill="#C8AC00" font-family="Open Sans,Avenir,Nunito,Arial,Helvetica,SansSerif" font-size="12.5" font-weight="bold" lengthAdjust="spacing" textLength="56.25" x="369.7917" y="69.9544">UmlNote</text><!--MD5=[f50f98d3d4fe9ef0d8df05cfc37f1377]
class UmlNote.Align--><rect codeLine="6" fill="#282828" height="127.0345" id="UmlNote.Align" rx="8.3333" ry="8.3333" style="stroke:#5E5E5E;stroke-width:1.0416666666666667;" width="71.875" x="379.6875" y="93.2861"/><rect fill="#1B1B1A" height="31.3883" rx="8.3333" ry="8.3333" style="stroke:#1B1B1A;stroke-width:1.0416666666666667;" width="71.875" x="379.6875" y="93.2861"/><rect fill="#1B1B1A" height="8.3333" style="stroke:#1B1B1A;stroke-width:1.0416666666666667;" width="71.875" x="379.6875" y="116.3411"/><rect codeLine="6" fill="none" height="127.0345" id="UmlNote.Align" rx="8.3333" ry="8.3333" style="stroke:#5E5E5E;stroke-width:1.0416666666666667;" width="71.875" x="379.6875" y="93.2861"/><ellipse cx="394.2708" cy="108.9803" fill="#CF6300" rx="10.4167" ry="10.4167" style="stroke:#EF8300;stroke-width:1.0416666666666667;"/><path d="M397.3267,113.6678 L391.6504,113.6678 L391.6504,104.5553 L397.3267,104.5553 L397.3267,106.1422 L393.4509,106.1422 L393.4509,108.1075 L396.9604,108.1075 L396.9604,109.6944 L393.4509,109.6944 L393.4509,112.0809 L397.3267,112.0809 Z " fill="#000000"/><text fill="#D8BC00" font-family="Open Sans,Avenir,Nunito,Arial,Helvetica,SansSerif" font-size="12.5" font-weight="bold" lengthAdjust="spacing" textLength="34.375" x="410.9375" y="113.7044">Align</text><line style="stroke:#5E5E5E;stroke-width:1.0416666666666667;" x1="380.7292" x2="450.5208" y1="124.6745" y2="124.6745"/><text fill="#D8BC00" font-family="Open Sans,Avenir,Nunito,Arial,Helvetica,SansSerif" font-size="11.4583" lengthAdjust="spacing" textLength="48.9583" x="389.0625" y="143.044">BOTTOM</text><text fill="#D8BC00" font-family="Open Sans,Avenir,Nunito,Arial,Helvetica,SansSerif" font-size="11.4583" lengthAdjust="spacing" textLength="26.0417" x="389.0625" y="162.7889">LEFT</text><text fill="#D8BC00" font-family="Open Sans,Avenir,Nunito,Arial,Helvetica,SansSerif" font-size="11.4583" lengthAdjust="spacing" textLength="34.375" x="389.0625" y="182.5338">RIGHT</text><text fill="#D8BC00" font-family="Open Sans,Avenir,Nunito,Arial,Helvetica,SansSerif" font-size="11.4583" lengthAdjust="spacing" textLength="22.9167" x="389.0625" y="202.2786">TOP</text><line style="stroke:#5E5E5E;stroke-width:1.0416666666666667;" x1="380.7292" x2="450.5208" y1="211.9873" y2="211.9873"/><!--MD5=[19598289f54810bf80d2e862db1b8ac9]
class LexakaiJavadoc--><rect codeLine="14" fill="#282828" height="48.055" id="LexakaiJavadoc" rx="8.3333" ry="8.3333" style="stroke:#5E5E5E;stroke-width:1.0416666666666667;" width="136.4583" x="15.1042" y="132.8695"/><rect fill="#1B1B1A" height="31.3883" rx="8.3333" ry="8.3333" style="stroke:#1B1B1A;stroke-width:1.0416666666666667;" width="136.4583" x="15.1042" y="132.8695"/><rect fill="#1B1B1A" height="8.3333" style="stroke:#1B1B1A;stroke-width:1.0416666666666667;" width="136.4583" x="15.1042" y="155.9245"/><rect codeLine="14" fill="none" height="48.055" id="LexakaiJavadoc" rx="8.3333" ry="8.3333" style="stroke:#5E5E5E;stroke-width:1.0416666666666667;" width="136.4583" x="15.1042" y="132.8695"/><ellipse cx="29.6875" cy="148.5636" fill="#3380B9" rx="10.4167" ry="10.4167" style="stroke:#004D86;stroke-width:1.0416666666666667;"/><path d="M30.9387,148.8831 Q30.9387,148.1934 30.6274,147.8027 Q30.3162,147.4121 29.7729,147.4121 Q29.2297,147.4121 28.9215,147.8027 Q28.6133,148.1934 28.6133,148.8831 Q28.6133,149.5789 28.9215,149.9695 Q29.2297,150.3601 29.7729,150.3601 Q30.3162,150.3601 30.6274,149.9695 Q30.9387,149.5789 30.9387,148.8831 Z M32.074,151.3855 L30.8777,151.3855 L30.8777,150.885 Q30.6458,151.2085 30.3314,151.358 Q30.0171,151.5076 29.5776,151.5076 Q28.5767,151.5076 27.9633,150.7874 Q27.3499,150.0671 27.3499,148.8831 Q27.3499,147.7051 27.9602,146.9879 Q28.5706,146.2708 29.5776,146.2708 Q30.011,146.2708 30.3406,146.4203 Q30.6702,146.5698 30.8777,146.8567 L30.8777,146.6064 Q30.8777,145.7764 30.423,145.3247 Q29.9683,144.873 29.126,144.873 Q27.8564,144.873 27.0538,145.99 Q26.2512,147.1069 26.2512,148.8953 Q26.2512,150.769 27.179,151.8768 Q28.1067,152.9846 29.6509,152.9846 Q30.1392,152.9846 30.5969,152.8412 Q31.0547,152.6978 31.4758,152.4109 L32.0374,153.4851 Q31.543,153.8208 30.9601,153.9886 Q30.3772,154.1565 29.7119,154.1565 Q27.5757,154.1565 26.3062,152.7344 Q25.0366,151.3123 25.0366,148.8953 Q25.0366,146.5332 26.178,145.1141 Q27.3193,143.6951 29.1992,143.6951 Q30.5298,143.6951 31.3019,144.4977 Q32.074,145.3003 32.074,146.6858 Z " fill="#000000"/><text fill="#D8BC00" font-family="Open Sans,Avenir,Nunito,Arial,Helvetica,SansSerif" font-size="12.5" font-weight="bold" lengthAdjust="spacing" textLength="98.9583" x="46.3542" y="153.2878">LexakaiJavadoc</text><line style="stroke:#5E5E5E;stroke-width:1.0416666666666667;" x1="16.1458" x2="150.5208" y1="164.2578" y2="164.2578"/><line style="stroke:#5E5E5E;stroke-width:1.0416666666666667;" x1="16.1458" x2="150.5208" y1="172.5911" y2="172.5911"/><!--MD5=[3e55801a34b7a541bce0b6b38475476f]
class UmlClassDiagram--><rect codeLine="16" fill="#282828" height="48.055" id="UmlClassDiagram" rx="8.3333" ry="8.3333" style="stroke:#5E5E5E;stroke-width:1.0416666666666667;" width="154.1667" x="188.5417" y="132.8695"/><rect fill="#1B1B1A" height="31.3883" rx="8.3333" ry="8.3333" style="stroke:#1B1B1A;stroke-width:1.0416666666666667;" width="154.1667" x="188.5417" y="132.8695"/><rect fill="#1B1B1A" height="8.3333" style="stroke:#1B1B1A;stroke-width:1.0416666666666667;" width="154.1667" x="188.5417" y="155.9245"/><rect codeLine="16" fill="none" height="48.055" id="UmlClassDiagram" rx="8.3333" ry="8.3333" style="stroke:#5E5E5E;stroke-width:1.0416666666666667;" width="154.1667" x="188.5417" y="132.8695"/><ellipse cx="203.125" cy="148.5636" fill="#3380B9" rx="10.4167" ry="10.4167" style="stroke:#004D86;stroke-width:1.0416666666666667;"/><path d="M204.3762,148.8831 Q204.3762,148.1934 204.0649,147.8027 Q203.7537,147.4121 203.2104,147.4121 Q202.6672,147.4121 202.359,147.8027 Q202.0508,148.1934 202.0508,148.8831 Q202.0508,149.5789 202.359,149.9695 Q202.6672,150.3601 203.2104,150.3601 Q203.7537,150.3601 204.0649,149.9695 Q204.3762,149.5789 204.3762,148.8831 Z M205.5115,151.3855 L204.3152,151.3855 L204.3152,150.885 Q204.0833,151.2085 203.7689,151.358 Q203.4546,151.5076 203.0151,151.5076 Q202.0142,151.5076 201.4008,150.7874 Q200.7874,150.0671 200.7874,148.8831 Q200.7874,147.7051 201.3977,146.9879 Q202.0081,146.2708 203.0151,146.2708 Q203.4485,146.2708 203.7781,146.4203 Q204.1077,146.5698 204.3152,146.8567 L204.3152,146.6064 Q204.3152,145.7764 203.8605,145.3247 Q203.4058,144.873 202.5635,144.873 Q201.2939,144.873 200.4913,145.99 Q199.6887,147.1069 199.6887,148.8953 Q199.6887,150.769 200.6165,151.8768 Q201.5442,152.9846 203.0884,152.9846 Q203.5767,152.9846 204.0344,152.8412 Q204.4922,152.6978 204.9133,152.4109 L205.4749,153.4851 Q204.9805,153.8208 204.3976,153.9886 Q203.8147,154.1565 203.1494,154.1565 Q201.0132,154.1565 199.7437,152.7344 Q198.4741,151.3123 198.4741,148.8953 Q198.4741,146.5332 199.6155,145.1141 Q200.7568,143.6951 202.6367,143.6951 Q203.9673,143.6951 204.7394,144.4977 Q205.5115,145.3003 205.5115,146.6858 Z " fill="#000000"/><text fill="#D8BC00" font-family="Open Sans,Avenir,Nunito,Arial,Helvetica,SansSerif" font-size="12.5" font-weight="bold" lengthAdjust="spacing" textLength="116.6667" x="219.7917" y="153.2878">UmlClassDiagram</text><line style="stroke:#5E5E5E;stroke-width:1.0416666666666667;" x1="189.5833" x2="341.6667" y1="164.2578" y2="164.2578"/><line style="stroke:#5E5E5E;stroke-width:1.0416666666666667;" x1="189.5833" x2="341.6667" y1="172.5911" y2="172.5911"/><!--MD5=[51c93b5906ba0daa295218a974cfaf57]
class UmlMethodGroup--><rect codeLine="18" fill="#282828" height="48.055" id="UmlMethodGroup" rx="8.3333" ry="8.3333" style="stroke:#5E5E5E;stroke-width:1.0416666666666667;" width="152.0833" x="7.2917" y="282.8695"/><rect fill="#1B1B1A" height="31.3883" rx="8.3333" ry="8.3333" style="stroke:#1B1B1A;stroke-width:1.0416666666666667;" width="152.0833" x="7.2917" y="282.8695"/><rect fill="#1B1B1A" height="8.3333" style="stroke:#1B1B1A;stroke-width:1.0416666666666667;" width="152.0833" x="7.2917" y="305.9245"/><rect codeLine="18" fill="none" height="48.055" id="UmlMethodGroup" rx="8.3333" ry="8.3333" style="stroke:#5E5E5E;stroke-width:1.0416666666666667;" width="152.0833" x="7.2917" y="282.8695"/><ellipse cx="21.875" cy="298.5636" fill="#3380B9" rx="10.4167" ry="10.4167" style="stroke:#004D86;stroke-width:1.0416666666666667;"/><path d="M23.1262,298.8831 Q23.1262,298.1934 22.8149,297.8027 Q22.5037,297.4121 21.9604,297.4121 Q21.4172,297.4121 21.109,297.8027 Q20.8008,298.1934 20.8008,298.8831 Q20.8008,299.5789 21.109,299.9695 Q21.4172,300.3601 21.9604,300.3601 Q22.5037,300.3601 22.8149,299.9695 Q23.1262,299.5789 23.1262,298.8831 Z M24.2615,301.3855 L23.0652,301.3855 L23.0652,300.885 Q22.8333,301.2085 22.5189,301.358 Q22.2046,301.5076 21.7651,301.5076 Q20.7642,301.5076 20.1508,300.7874 Q19.5374,300.0671 19.5374,298.8831 Q19.5374,297.7051 20.1477,296.9879 Q20.7581,296.2708 21.7651,296.2708 Q22.1985,296.2708 22.5281,296.4203 Q22.8577,296.5698 23.0652,296.8567 L23.0652,296.6064 Q23.0652,295.7764 22.6105,295.3247 Q22.1558,294.873 21.3135,294.873 Q20.0439,294.873 19.2413,295.99 Q18.4387,297.1069 18.4387,298.8953 Q18.4387,300.769 19.3665,301.8768 Q20.2942,302.9846 21.8384,302.9846 Q22.3267,302.9846 22.7844,302.8412 Q23.2422,302.6978 23.6633,302.4109 L24.2249,303.4851 Q23.7305,303.8208 23.1476,303.9886 Q22.5647,304.1565 21.8994,304.1565 Q19.7632,304.1565 18.4937,302.7344 Q17.2241,301.3123 17.2241,298.8953 Q17.2241,296.5332 18.3655,295.1141 Q19.5068,293.6951 21.3867,293.6951 Q22.7173,293.6951 23.4894,294.4977 Q24.2615,295.3003 24.2615,296.6858 Z " fill="#000000"/><text fill="#D8BC00" font-family="Open Sans,Avenir,Nunito,Arial,Helvetica,SansSerif" font-size="12.5" font-weight="bold" lengthAdjust="spacing" textLength="114.5833" x="38.5417" y="303.2878">UmlMethodGroup</text><line style="stroke:#5E5E5E;stroke-width:1.0416666666666667;" x1="8.3333" x2="158.3333" y1="314.2578" y2="314.2578"/><line style="stroke:#5E5E5E;stroke-width:1.0416666666666667;" x1="8.3333" x2="158.3333" y1="322.5911" y2="322.5911"/><!--MD5=[5af461aa283c649a7c479eeb97492991]
class UmlNote--><rect codeLine="20" fill="#282828" height="48.055" id="UmlNote" rx="8.3333" ry="8.3333" style="stroke:#5E5E5E;stroke-width:1.0416666666666667;" width="93.75" x="195.8333" y="282.8695"/><rect fill="#1B1B1A" height="31.3883" rx="8.3333" ry="8.3333" style="stroke:#1B1B1A;stroke-width:1.0416666666666667;" width="93.75" x="195.8333" y="282.8695"/><rect fill="#1B1B1A" height="8.3333" style="stroke:#1B1B1A;stroke-width:1.0416666666666667;" width="93.75" x="195.8333" y="305.9245"/><rect codeLine="20" fill="none" height="48.055" id="UmlNote" rx="8.3333" ry="8.3333" style="stroke:#5E5E5E;stroke-width:1.0416666666666667;" width="93.75" x="195.8333" y="282.8695"/><ellipse cx="210.4167" cy="298.5636" fill="#3380B9" rx="10.4167" ry="10.4167" style="stroke:#004D86;stroke-width:1.0416666666666667;"/><path d="M211.6679,298.8831 Q211.6679,298.1934 211.3566,297.8027 Q211.0453,297.4121 210.5021,297.4121 Q209.9589,297.4121 209.6507,297.8027 Q209.3424,298.1934 209.3424,298.8831 Q209.3424,299.5789 209.6507,299.9695 Q209.9589,300.3601 210.5021,300.3601 Q211.0453,300.3601 211.3566,299.9695 Q211.6679,299.5789 211.6679,298.8831 Z M212.8031,301.3855 L211.6069,301.3855 L211.6069,300.885 Q211.3749,301.2085 211.0606,301.358 Q210.7463,301.5076 210.3068,301.5076 Q209.3058,301.5076 208.6924,300.7874 Q208.079,300.0671 208.079,298.8831 Q208.079,297.7051 208.6894,296.9879 Q209.2997,296.2708 210.3068,296.2708 Q210.7402,296.2708 211.0697,296.4203 Q211.3993,296.5698 211.6069,296.8567 L211.6069,296.6064 Q211.6069,295.7764 211.1521,295.3247 Q210.6974,294.873 209.8551,294.873 Q208.5856,294.873 207.783,295.99 Q206.9804,297.1069 206.9804,298.8953 Q206.9804,300.769 207.9081,301.8768 Q208.8359,302.9846 210.38,302.9846 Q210.8683,302.9846 211.3261,302.8412 Q211.7839,302.6978 212.205,302.4109 L212.7665,303.4851 Q212.2721,303.8208 211.6892,303.9886 Q211.1064,304.1565 210.4411,304.1565 Q208.3049,304.1565 207.0353,302.7344 Q205.7658,301.3123 205.7658,298.8953 Q205.7658,296.5332 206.9071,295.1141 Q208.0485,293.6951 209.9284,293.6951 Q211.259,293.6951 212.031,294.4977 Q212.8031,295.3003 212.8031,296.6858 Z " fill="#000000"/><text fill="#D8BC00" font-family="Open Sans,Avenir,Nunito,Arial,Helvetica,SansSerif" font-size="12.5" font-weight="bold" lengthAdjust="spacing" textLength="56.25" x="227.0833" y="303.2878">UmlNote</text><line style="stroke:#5E5E5E;stroke-width:1.0416666666666667;" x1="196.875" x2="288.5417" y1="314.2578" y2="314.2578"/><line style="stroke:#5E5E5E;stroke-width:1.0416666666666667;" x1="196.875" x2="288.5417" y1="322.5911" y2="322.5911"/><!--MD5=[07949ac71a52e63ca82e1ef17ed185c2]
link LexakaiJavadoc to UmlClassDiagram--><!--MD5=[745324d4d90995d262bc8ac9d0b5488e]
link LexakaiJavadoc to UmlMethodGroup--><!--MD5=[b9c0328be0b0174cabd5c1e96e9a024a]
link UmlMethodGroup to UmlNote--><!--MD5=[82caf2f9745ced368b2cdb013f43d474]
@startuml

    !include lexakai.theme
    
    title "com.telenav.lexakai.annotations"
    
    enum UmlNote.Align
    {
        BOTTOM
        LEFT
        RIGHT
        TOP
    }
    
    annotation LexakaiJavadoc
    
    annotation UmlClassDiagram
    
    annotation UmlMethodGroup
    
    annotation UmlNote
    
@enduml

@startuml









skinparam backgroundColor #333333






skinparam  {
    defaultFontName   "Open Sans,Avenir,Nunito,Arial,Helvetica,SansSerif"
    defaultFontSize   12
    defaultTextAlignment left
    shadowing false
    RoundCorner 10
    TitleFontSize 18
}

skinparam defaultFontName       "Open Sans,Avenir,Nunito,Arial,Helvetica,SansSerif"
skinparam defaultFontSize       12
skinparam dpi                   100
skinparam shadowing             false
skinparam roundcorner           16
skinparam ParticipantPadding    40
skinparam BoxPadding            40
skinparam Padding               3
skinparam ArrowColor            #545454
skinparam stereotype {
    CBackgroundColor #0066cf
    CBorderColor #0086ef
    ABackgroundColor #C8Ac00
    ABorderColor #D8Bc00
    IBackgroundColor #008400
    IBorderColor #239c23
    EBackgroundColor #cf6300
    EBorderColor #ef8300
    NBackgroundColor #3380b9
    NBorderColor #004d86
}
skinparam title {
	FontColor	                 #c0c0c0
 	BorderColor                  #545454
	FontSize	    	         20
	BorderRoundCorner            16
	BorderThickness 	         1
	BackgroundColor              #48494b
}


skinparam legend {
	BackgroundColor #303030
	BorderColor #404040
	FontColor #a0a0a0
}

	skinparam swimlane {
	BorderColor #5e5e5e
	BorderThickness 2
	TitleBackgroundColor  #6d6d6d-#484848
	TitleFontColor #303030
}

skinparam activity {
		FontColor #C8Ac00
	BorderColor #333333
	BackgroundColor #333333-#333333
	BarColor #00FF00
	StartColor #0060a8
	EndColor #0060a8
	DiamondBackgroundColor #6d6d6d-#3a3a3a
  	DiamondBorderColor #3a3a3a
  	DiamondFontColor #fefefe
}


skinparam participant {
		FontColor #C8Ac00
	BorderColor #333333
	BackgroundColor #333333-#333333
	ParticipantBorderThickness 2
}


skinparam actor {
		FontColor #C8Ac00
	BorderColor #333333
	BackgroundColor #333333-#333333
}


skinparam arrow {
	Thickness 1.5
	Color #545454
	FontColor #a0a0a0
    FontStyle bold
    MessageAlignment center
}



skinparam sequence {
	BorderColor #303030
	TitleFontColor #303030
	BackgroundColor #333333
	StartColor #303030
	EndColor #303030
	BoxBackgroundColor #333333
	BoxBorderColor #484848
	BoxFontColor #484848
	LifeLineBorderColor #484848
	LifeLineBorderThickness 2
	LifeLineBackgroundColor #3a3a3a
	GroupBorderColor #484848
	GroupFontColor #484848
	GroupHeaderFontColor #0060a8
	GroupBackgroundColor #484848
	GroupHeaderBackgroundColor #333333
	DividerBackgroundColor #484848
    DividerBorderColor #484848
    DividerBorderThickness 2
    DividerFontColor #D8Bc00
	ReferenceBackgroundColor #333333
	ReferenceBorderColor #484848
	ReferenceFontColor #fefefe
	ReferenceHeaderBackgroundColor #484848
}


skinparam partition {
	BorderColor #303030
	FontColor #333333
	BackgroundColor #333333
}


skinparam collections {
		FontColor #C8Ac00
	BorderColor #333333
	BackgroundColor #333333-#333333
}


skinparam control {
		FontColor #C8Ac00
	BorderColor #333333
	BackgroundColor #333333-#333333
}


skinparam entity {
		FontColor #C8Ac00
	BorderColor #333333
	BackgroundColor #333333-#333333
}


skinparam boundary {
		FontColor #C8Ac00
	BorderColor #333333
	BackgroundColor #333333-#333333
}


skinparam agent {
	BackgroundColor #ff8000
	BorderColor #ff9933
	FontColor #484848
}


skinparam note {
	BorderThickness 1
	BackgroundColor #1b1b1a
	BorderColor #5e5e5e
	FontSize 11
	FontColor #a0a0a0
}


skinparam artifact {
	BorderThickness 10
	BorderColor #5e5e5e
	BackgroundColor #1b1b1a
	FontColor #D8Bc00
}


skinparam component {
		FontColor #C8Ac00
	BorderColor #333333
	BackgroundColor #333333-#333333
}


skinparam interface {
	BackgroundColor  #008400
	BorderColor  #007F00
	FontColor #484848
}


skinparam storage {
	BackgroundColor #ff8000
  	BorderColor #cc6600
	FontColor #222222
}


skinparam node {
	BackgroundColor #333333
	BorderColor #333333
	FontColor #C8Ac00
}


skinparam cloud {
	BackgroundColor #484848-black
	BorderColor #484848
	FontColor #D8Bc00
}


skinparam database {
		FontColor #C8Ac00
	BorderColor #333333
	BackgroundColor #333333-#333333
	BackgroundColor  #333333
}


skinparam class {
		FontColor #C8Ac00
	BorderColor #333333
	BackgroundColor #333333-#333333
	HeaderBackgroundColor #1b1b1a
    BackgroundColor #282828
    BorderColor #5e5e5e
 	StereotypeFontColor #a0a0a0
    StereotypeFontStyle bold
	BorderThickness 1
	AttributeFontColor #D8Bc00
	AttributeFontSize 11
    FontColor #D8Bc00
    FontStyle bold
}


skinparam object {
		FontColor #C8Ac00
	BorderColor #333333
	BackgroundColor #333333-#333333
	StereotypeFontColor #484848
	BorderThickness 1
	AttributeFontColor #fefefe
	AttributeFontSize 11
}


skinparam usecase {
		FontColor #C8Ac00
	BorderColor #333333
	BackgroundColor #333333-#333333
	BorderThickness 2
	StereotypeFontColor #303030
}


skinparam rectangle {
		FontColor #C8Ac00
	BorderColor #333333
	BackgroundColor #333333-#333333
	BackgroundColor #333333
	BorderThickness 2
	StereotypeFontColor #303030
}


skinparam package {
		FontColor #C8Ac00
	BorderColor #333333
	BackgroundColor #333333-#333333
	BackgroundColor #333333
	BorderThickness 2
}


skinparam folder {
	BackgroundColor #6d6d6d
  	BorderColor #ff8000
	FontColor #ff8000
	BorderThickness 2
}


skinparam frame {
	BackgroundColor #6d6d6d
  	BorderColor #0060a8
	FontColor #0060a8
	BorderThickness 2
}


skinparam state {
		FontColor #C8Ac00
	BorderColor #333333
	BackgroundColor #333333-#333333
	StartColor #0060a8
	EndColor #0060a8
	AttributeFontColor #fefefe
	AttributeFontSize 11
}


skinparam queue {
		FontColor #C8Ac00
	BorderColor #333333
	BackgroundColor #333333-#333333
}


skinparam card {
	BackgroundColor #0060a8
	BorderColor #004d86
	FontColor $INFO_TEXT
}


skinparam file {
	BackgroundColor #6d6d6d-#484848
	BorderColor #0060a8
	FontColor #fefefe
}


skinparam stack {
		FontColor #C8Ac00
	BorderColor #333333
	BackgroundColor #333333-#333333
}

    
    title "com.telenav.lexakai.annotations"
    
    enum UmlNote.Align
    {
        BOTTOM
        LEFT
        RIGHT
        TOP
    }
    
    annotation LexakaiJavadoc
    
    annotation UmlClassDiagram
    
    annotation UmlMethodGroup
    
    annotation UmlNote
    
@enduml

PlantUML version 1.2021.01(Tue Feb 02 00:55:08 MST 2021)
(GPL source distribution)
Java Runtime: Java(TM) SE Runtime Environment
JVM: Java HotSpot(TM) 64-Bit Server VM
Default Encoding: UTF-8
Language: en
Country: US
--></g></svg>