<?xml version="1.0" encoding="UTF-8" standalone="no"?><svg xmlns="http://www.w3.org/2000/svg" xmlns:xlink="http://www.w3.org/1999/xlink" contentScriptType="application/ecmascript" contentStyleType="text/css" height="218.75px" preserveAspectRatio="none" style="width:583px;height:218px;background:#333333;" version="1.1" viewBox="0 0 583 218" width="583.3333px" zoomAndPan="magnify"><defs/><g><rect fill="#48494B" height="41.2028" rx="8.3333" ry="8.3333" style="stroke:#545454;stroke-width:1.0416666666666667;" width="433.3333" x="67.7083" y="2.0833"/><text fill="#C0C0C0" font-family="Open Sans,Avenir,Nunito,Arial,Helvetica,SansSerif" font-size="20.8333" lengthAdjust="spacing" textLength="410.4167" x="79.1667" y="30.5583">com.telenav.lexakai.annotations.visibility</text><!--MD5=[761b175fdb4374cec70195b8c13168bb]
class UmlExcludeMember--><rect codeLine="6" fill="#282828" height="48.055" id="UmlExcludeMember" rx="8.3333" ry="8.3333" style="stroke:#5E5E5E;stroke-width:1.0416666666666667;" width="164.5833" x="7.2917" y="53.7028"/><rect fill="#1B1B1A" height="31.3883" rx="8.3333" ry="8.3333" style="stroke:#1B1B1A;stroke-width:1.0416666666666667;" width="164.5833" x="7.2917" y="53.7028"/><rect fill="#1B1B1A" height="8.3333" style="stroke:#1B1B1A;stroke-width:1.0416666666666667;" width="164.5833" x="7.2917" y="76.7578"/><rect codeLine="6" fill="none" height="48.055" id="UmlExcludeMember" rx="8.3333" ry="8.3333" style="stroke:#5E5E5E;stroke-width:1.0416666666666667;" width="164.5833" x="7.2917" y="53.7028"/><ellipse cx="21.875" cy="69.397" fill="#3380B9" rx="10.4167" ry="10.4167" style="stroke:#004D86;stroke-width:1.0416666666666667;"/><path d="M23.1262,69.7164 Q23.1262,69.0267 22.8149,68.6361 Q22.5037,68.2454 21.9604,68.2454 Q21.4172,68.2454 21.109,68.6361 Q20.8008,69.0267 20.8008,69.7164 Q20.8008,70.4122 21.109,70.8028 Q21.4172,71.1934 21.9604,71.1934 Q22.5037,71.1934 22.8149,70.8028 Q23.1262,70.4122 23.1262,69.7164 Z M24.2615,72.2188 L23.0652,72.2188 L23.0652,71.7183 Q22.8333,72.0418 22.5189,72.1914 Q22.2046,72.3409 21.7651,72.3409 Q20.7642,72.3409 20.1508,71.6207 Q19.5374,70.9005 19.5374,69.7164 Q19.5374,68.5384 20.1477,67.8212 Q20.7581,67.1041 21.7651,67.1041 Q22.1985,67.1041 22.5281,67.2536 Q22.8577,67.4032 23.0652,67.69 L23.0652,67.4398 Q23.0652,66.6097 22.6105,66.158 Q22.1558,65.7064 21.3135,65.7064 Q20.0439,65.7064 19.2413,66.8233 Q18.4387,67.9403 18.4387,69.7286 Q18.4387,71.6024 19.3665,72.7102 Q20.2942,73.818 21.8384,73.818 Q22.3267,73.818 22.7844,73.6745 Q23.2422,73.5311 23.6633,73.2442 L24.2249,74.3184 Q23.7305,74.6541 23.1476,74.822 Q22.5647,74.9898 21.8994,74.9898 Q19.7632,74.9898 18.4937,73.5677 Q17.2241,72.1456 17.2241,69.7286 Q17.2241,67.3665 18.3655,65.9475 Q19.5068,64.5284 21.3867,64.5284 Q22.7173,64.5284 23.4894,65.331 Q24.2615,66.1336 24.2615,67.5191 Z " fill="#000000"/><text fill="#D8BC00" font-family="Open Sans,Avenir,Nunito,Arial,Helvetica,SansSerif" font-size="12.5" font-weight="bold" lengthAdjust="spacing" textLength="127.0833" x="38.5417" y="74.1211">UmlExcludeMember</text><line style="stroke:#5E5E5E;stroke-width:1.0416666666666667;" x1="8.3333" x2="170.8333" y1="85.0911" y2="85.0911"/><line style="stroke:#5E5E5E;stroke-width:1.0416666666666667;" x1="8.3333" x2="170.8333" y1="93.4245" y2="93.4245"/><!--MD5=[e851a8f319a38e158301054ce27155ed]
class UmlExcludeSuperTypes--><rect codeLine="8" fill="#282828" height="48.055" id="UmlExcludeSuperTypes" rx="8.3333" ry="8.3333" style="stroke:#5E5E5E;stroke-width:1.0416666666666667;" width="187.5" x="208.3333" y="53.7028"/><rect fill="#1B1B1A" height="31.3883" rx="8.3333" ry="8.3333" style="stroke:#1B1B1A;stroke-width:1.0416666666666667;" width="187.5" x="208.3333" y="53.7028"/><rect fill="#1B1B1A" height="8.3333" style="stroke:#1B1B1A;stroke-width:1.0416666666666667;" width="187.5" x="208.3333" y="76.7578"/><rect codeLine="8" fill="none" height="48.055" id="UmlExcludeSuperTypes" rx="8.3333" ry="8.3333" style="stroke:#5E5E5E;stroke-width:1.0416666666666667;" width="187.5" x="208.3333" y="53.7028"/><ellipse cx="222.9167" cy="69.397" fill="#3380B9" rx="10.4167" ry="10.4167" style="stroke:#004D86;stroke-width:1.0416666666666667;"/><path d="M224.1679,69.7164 Q224.1679,69.0267 223.8566,68.6361 Q223.5453,68.2454 223.0021,68.2454 Q222.4589,68.2454 222.1507,68.6361 Q221.8424,69.0267 221.8424,69.7164 Q221.8424,70.4122 222.1507,70.8028 Q222.4589,71.1934 223.0021,71.1934 Q223.5453,71.1934 223.8566,70.8028 Q224.1679,70.4122 224.1679,69.7164 Z M225.3031,72.2188 L224.1069,72.2188 L224.1069,71.7183 Q223.8749,72.0418 223.5606,72.1914 Q223.2463,72.3409 222.8068,72.3409 Q221.8058,72.3409 221.1924,71.6207 Q220.579,70.9005 220.579,69.7164 Q220.579,68.5384 221.1894,67.8212 Q221.7997,67.1041 222.8068,67.1041 Q223.2402,67.1041 223.5697,67.2536 Q223.8993,67.4032 224.1069,67.69 L224.1069,67.4398 Q224.1069,66.6097 223.6521,66.158 Q223.1974,65.7064 222.3551,65.7064 Q221.0856,65.7064 220.283,66.8233 Q219.4804,67.9403 219.4804,69.7286 Q219.4804,71.6024 220.4081,72.7102 Q221.3359,73.818 222.88,73.818 Q223.3683,73.818 223.8261,73.6745 Q224.2839,73.5311 224.705,73.2442 L225.2665,74.3184 Q224.7721,74.6541 224.1892,74.822 Q223.6064,74.9898 222.9411,74.9898 Q220.8049,74.9898 219.5353,73.5677 Q218.2658,72.1456 218.2658,69.7286 Q218.2658,67.3665 219.4071,65.9475 Q220.5485,64.5284 222.4284,64.5284 Q223.759,64.5284 224.531,65.331 Q225.3031,66.1336 225.3031,67.5191 Z " fill="#000000"/><text fill="#D8BC00" font-family="Open Sans,Avenir,Nunito,Arial,Helvetica,SansSerif" font-size="12.5" font-weight="bold" lengthAdjust="spacing" textLength="150" x="239.5833" y="74.1211">UmlExcludeSuperTypes</text><line style="stroke:#5E5E5E;stroke-width:1.0416666666666667;" x1="209.375" x2="394.7917" y1="85.0911" y2="85.0911"/><line style="stroke:#5E5E5E;stroke-width:1.0416666666666667;" x1="209.375" x2="394.7917" y1="93.4245" y2="93.4245"/><!--MD5=[a1f897bd662fbdcf5a77dc2c92c7019d]
class UmlExcludeType--><rect codeLine="10" fill="#282828" height="48.055" id="UmlExcludeType" rx="8.3333" ry="8.3333" style="stroke:#5E5E5E;stroke-width:1.0416666666666667;" width="143.75" x="432.2917" y="53.7028"/><rect fill="#1B1B1A" height="31.3883" rx="8.3333" ry="8.3333" style="stroke:#1B1B1A;stroke-width:1.0416666666666667;" width="143.75" x="432.2917" y="53.7028"/><rect fill="#1B1B1A" height="8.3333" style="stroke:#1B1B1A;stroke-width:1.0416666666666667;" width="143.75" x="432.2917" y="76.7578"/><rect codeLine="10" fill="none" height="48.055" id="UmlExcludeType" rx="8.3333" ry="8.3333" style="stroke:#5E5E5E;stroke-width:1.0416666666666667;" width="143.75" x="432.2917" y="53.7028"/><ellipse cx="446.875" cy="69.397" fill="#3380B9" rx="10.4167" ry="10.4167" style="stroke:#004D86;stroke-width:1.0416666666666667;"/><path d="M448.1262,69.7164 Q448.1262,69.0267 447.8149,68.6361 Q447.5037,68.2454 446.9604,68.2454 Q446.4172,68.2454 446.109,68.6361 Q445.8008,69.0267 445.8008,69.7164 Q445.8008,70.4122 446.109,70.8028 Q446.4172,71.1934 446.9604,71.1934 Q447.5037,71.1934 447.8149,70.8028 Q448.1262,70.4122 448.1262,69.7164 Z M449.2615,72.2188 L448.0652,72.2188 L448.0652,71.7183 Q447.8333,72.0418 447.5189,72.1914 Q447.2046,72.3409 446.7651,72.3409 Q445.7642,72.3409 445.1508,71.6207 Q444.5374,70.9005 444.5374,69.7164 Q444.5374,68.5384 445.1477,67.8212 Q445.7581,67.1041 446.7651,67.1041 Q447.1985,67.1041 447.5281,67.2536 Q447.8577,67.4032 448.0652,67.69 L448.0652,67.4398 Q448.0652,66.6097 447.6105,66.158 Q447.1558,65.7064 446.3135,65.7064 Q445.0439,65.7064 444.2413,66.8233 Q443.4387,67.9403 443.4387,69.7286 Q443.4387,71.6024 444.3665,72.7102 Q445.2942,73.818 446.8384,73.818 Q447.3267,73.818 447.7844,73.6745 Q448.2422,73.5311 448.6633,73.2442 L449.2249,74.3184 Q448.7305,74.6541 448.1476,74.822 Q447.5647,74.9898 446.8994,74.9898 Q444.7632,74.9898 443.4937,73.5677 Q442.2241,72.1456 442.2241,69.7286 Q442.2241,67.3665 443.3655,65.9475 Q444.5068,64.5284 446.3867,64.5284 Q447.7173,64.5284 448.4894,65.331 Q449.2615,66.1336 449.2615,67.5191 Z " fill="#000000"/><text fill="#D8BC00" font-family="Open Sans,Avenir,Nunito,Arial,Helvetica,SansSerif" font-size="12.5" font-weight="bold" lengthAdjust="spacing" textLength="106.25" x="463.5417" y="74.1211">UmlExcludeType</text><line style="stroke:#5E5E5E;stroke-width:1.0416666666666667;" x1="433.3333" x2="575" y1="85.0911" y2="85.0911"/><line style="stroke:#5E5E5E;stroke-width:1.0416666666666667;" x1="433.3333" x2="575" y1="93.4245" y2="93.4245"/><!--MD5=[45dcb5346f6d75d3b02982c141830ba1]
class UmlIncludeMember--><rect codeLine="12" fill="#282828" height="48.055" id="UmlIncludeMember" rx="8.3333" ry="8.3333" style="stroke:#5E5E5E;stroke-width:1.0416666666666667;" width="162.5" x="8.3333" y="164.1195"/><rect fill="#1B1B1A" height="31.3883" rx="8.3333" ry="8.3333" style="stroke:#1B1B1A;stroke-width:1.0416666666666667;" width="162.5" x="8.3333" y="164.1195"/><rect fill="#1B1B1A" height="8.3333" style="stroke:#1B1B1A;stroke-width:1.0416666666666667;" width="162.5" x="8.3333" y="187.1745"/><rect codeLine="12" fill="none" height="48.055" id="UmlIncludeMember" rx="8.3333" ry="8.3333" style="stroke:#5E5E5E;stroke-width:1.0416666666666667;" width="162.5" x="8.3333" y="164.1195"/><ellipse cx="22.9167" cy="179.8136" fill="#3380B9" rx="10.4167" ry="10.4167" style="stroke:#004D86;stroke-width:1.0416666666666667;"/><path d="M24.1679,180.1331 Q24.1679,179.4434 23.8566,179.0527 Q23.5453,178.6621 23.0021,178.6621 Q22.4589,178.6621 22.1507,179.0527 Q21.8424,179.4434 21.8424,180.1331 Q21.8424,180.8289 22.1507,181.2195 Q22.4589,181.6101 23.0021,181.6101 Q23.5453,181.6101 23.8566,181.2195 Q24.1679,180.8289 24.1679,180.1331 Z M25.3031,182.6355 L24.1069,182.6355 L24.1069,182.135 Q23.8749,182.4585 23.5606,182.608 Q23.2463,182.7576 22.8068,182.7576 Q21.8058,182.7576 21.1924,182.0374 Q20.579,181.3171 20.579,180.1331 Q20.579,178.9551 21.1894,178.2379 Q21.7997,177.5208 22.8068,177.5208 Q23.2402,177.5208 23.5697,177.6703 Q23.8993,177.8198 24.1069,178.1067 L24.1069,177.8564 Q24.1069,177.0264 23.6521,176.5747 Q23.1974,176.123 22.3551,176.123 Q21.0856,176.123 20.283,177.24 Q19.4804,178.3569 19.4804,180.1453 Q19.4804,182.019 20.4081,183.1268 Q21.3359,184.2346 22.88,184.2346 Q23.3683,184.2346 23.8261,184.0912 Q24.2839,183.9478 24.705,183.6609 L25.2665,184.7351 Q24.7721,185.0708 24.1892,185.2386 Q23.6064,185.4065 22.9411,185.4065 Q20.8049,185.4065 19.5353,183.9844 Q18.2658,182.5623 18.2658,180.1453 Q18.2658,177.7832 19.4071,176.3641 Q20.5485,174.9451 22.4284,174.9451 Q23.759,174.9451 24.531,175.7477 Q25.3031,176.5503 25.3031,177.9358 Z " fill="#000000"/><text fill="#D8BC00" font-family="Open Sans,Avenir,Nunito,Arial,Helvetica,SansSerif" font-size="12.5" font-weight="bold" lengthAdjust="spacing" textLength="125" x="39.5833" y="184.5378">UmlIncludeMember</text><line style="stroke:#5E5E5E;stroke-width:1.0416666666666667;" x1="9.375" x2="169.7917" y1="195.5078" y2="195.5078"/><line style="stroke:#5E5E5E;stroke-width:1.0416666666666667;" x1="9.375" x2="169.7917" y1="203.8411" y2="203.8411"/><!--MD5=[210f6792c6bffc41ef607f7340f8b313]
class UmlNotPublicApi--><rect codeLine="14" fill="#282828" height="48.055" id="UmlNotPublicApi" rx="8.3333" ry="8.3333" style="stroke:#5E5E5E;stroke-width:1.0416666666666667;" width="146.875" x="207.8125" y="164.1195"/><rect fill="#1B1B1A" height="31.3883" rx="8.3333" ry="8.3333" style="stroke:#1B1B1A;stroke-width:1.0416666666666667;" width="146.875" x="207.8125" y="164.1195"/><rect fill="#1B1B1A" height="8.3333" style="stroke:#1B1B1A;stroke-width:1.0416666666666667;" width="146.875" x="207.8125" y="187.1745"/><rect codeLine="14" fill="none" height="48.055" id="UmlNotPublicApi" rx="8.3333" ry="8.3333" style="stroke:#5E5E5E;stroke-width:1.0416666666666667;" width="146.875" x="207.8125" y="164.1195"/><ellipse cx="222.3958" cy="179.8136" fill="#3380B9" rx="10.4167" ry="10.4167" style="stroke:#004D86;stroke-width:1.0416666666666667;"/><path d="M223.6471,180.1331 Q223.6471,179.4434 223.3358,179.0527 Q223.0245,178.6621 222.4813,178.6621 Q221.9381,178.6621 221.6298,179.0527 Q221.3216,179.4434 221.3216,180.1331 Q221.3216,180.8289 221.6298,181.2195 Q221.9381,181.6101 222.4813,181.6101 Q223.0245,181.6101 223.3358,181.2195 Q223.6471,180.8289 223.6471,180.1331 Z M224.7823,182.6355 L223.586,182.6355 L223.586,182.135 Q223.3541,182.4585 223.0398,182.608 Q222.7254,182.7576 222.286,182.7576 Q221.285,182.7576 220.6716,182.0374 Q220.0582,181.3171 220.0582,180.1331 Q220.0582,178.9551 220.6685,178.2379 Q221.2789,177.5208 222.286,177.5208 Q222.7193,177.5208 223.0489,177.6703 Q223.3785,177.8198 223.586,178.1067 L223.586,177.8564 Q223.586,177.0264 223.1313,176.5747 Q222.6766,176.123 221.8343,176.123 Q220.5648,176.123 219.7622,177.24 Q218.9596,178.3569 218.9596,180.1453 Q218.9596,182.019 219.8873,183.1268 Q220.815,184.2346 222.3592,184.2346 Q222.8475,184.2346 223.3053,184.0912 Q223.763,183.9478 224.1842,183.6609 L224.7457,184.7351 Q224.2513,185.0708 223.6684,185.2386 Q223.0855,185.4065 222.4202,185.4065 Q220.284,185.4065 219.0145,183.9844 Q217.745,182.5623 217.745,180.1453 Q217.745,177.7832 218.8863,176.3641 Q220.0277,174.9451 221.9076,174.9451 Q223.2381,174.9451 224.0102,175.7477 Q224.7823,176.5503 224.7823,177.9358 Z " fill="#000000"/><text fill="#D8BC00" font-family="Open Sans,Avenir,Nunito,Arial,Helvetica,SansSerif" font-size="12.5" font-weight="bold" lengthAdjust="spacing" textLength="109.375" x="239.0625" y="184.5378">UmlNotPublicApi</text><line style="stroke:#5E5E5E;stroke-width:1.0416666666666667;" x1="208.8542" x2="353.6458" y1="195.5078" y2="195.5078"/><line style="stroke:#5E5E5E;stroke-width:1.0416666666666667;" x1="208.8542" x2="353.6458" y1="203.8411" y2="203.8411"/><!--MD5=[8cd8e718b1d662d5f7deb045a73df915]
link UmlExcludeMember to UmlExcludeSuperTypes--><!--MD5=[88eaadd01a2d3a5486f2c957ab9ab838]
link UmlExcludeSuperTypes to UmlExcludeType--><!--MD5=[b66222673af9f2516a35f0f24a7650a4]
link UmlExcludeMember to UmlIncludeMember--><!--MD5=[c45a02515dbfc395404ac541cbab564a]
link UmlIncludeMember to UmlNotPublicApi--><!--MD5=[9abcee1f7010e0d46afd60aaf6344758]
@startuml

    !include lexakai.theme
    
    title "com.telenav.lexakai.annotations.visibility"
    
    annotation UmlExcludeMember
    
    annotation UmlExcludeSuperTypes
    
    annotation UmlExcludeType
    
    annotation UmlIncludeMember
    
    annotation UmlNotPublicApi
    
@enduml

@startuml









skinparam backgroundColor #333333






skinparam  {
    defaultFontName   "Open Sans,Avenir,Nunito,Arial,Helvetica,SansSerif"
    defaultFontSize   12
    defaultTextAlignment left
    shadowing false
    RoundCorner 10
    TitleFontSize 18
}

skinparam defaultFontName       "Open Sans,Avenir,Nunito,Arial,Helvetica,SansSerif"
skinparam defaultFontSize       12
skinparam dpi                   100
skinparam shadowing             false
skinparam roundcorner           16
skinparam ParticipantPadding    40
skinparam BoxPadding            40
skinparam Padding               3
skinparam ArrowColor            #545454
skinparam stereotype {
    CBackgroundColor #0066cf
    CBorderColor #0086ef
    ABackgroundColor #C8Ac00
    ABorderColor #D8Bc00
    IBackgroundColor #008400
    IBorderColor #239c23
    EBackgroundColor #cf6300
    EBorderColor #ef8300
    NBackgroundColor #3380b9
    NBorderColor #004d86
}
skinparam title {
	FontColor	                 #c0c0c0
 	BorderColor                  #545454
	FontSize	    	         20
	BorderRoundCorner            16
	BorderThickness 	         1
	BackgroundColor              #48494b
}


skinparam legend {
	BackgroundColor #303030
	BorderColor #404040
	FontColor #a0a0a0
}

	skinparam swimlane {
	BorderColor #5e5e5e
	BorderThickness 2
	TitleBackgroundColor  #6d6d6d-#484848
	TitleFontColor #303030
}

skinparam activity {
		FontColor #C8Ac00
	BorderColor #333333
	BackgroundColor #333333-#333333
	BarColor #00FF00
	StartColor #0060a8
	EndColor #0060a8
	DiamondBackgroundColor #6d6d6d-#3a3a3a
  	DiamondBorderColor #3a3a3a
  	DiamondFontColor #fefefe
}


skinparam participant {
		FontColor #C8Ac00
	BorderColor #333333
	BackgroundColor #333333-#333333
	ParticipantBorderThickness 2
}


skinparam actor {
		FontColor #C8Ac00
	BorderColor #333333
	BackgroundColor #333333-#333333
}


skinparam arrow {
	Thickness 1.5
	Color #545454
	FontColor #a0a0a0
    FontStyle bold
    MessageAlignment center
}



skinparam sequence {
	BorderColor #303030
	TitleFontColor #303030
	BackgroundColor #333333
	StartColor #303030
	EndColor #303030
	BoxBackgroundColor #333333
	BoxBorderColor #484848
	BoxFontColor #484848
	LifeLineBorderColor #484848
	LifeLineBorderThickness 2
	LifeLineBackgroundColor #3a3a3a
	GroupBorderColor #484848
	GroupFontColor #484848
	GroupHeaderFontColor #0060a8
	GroupBackgroundColor #484848
	GroupHeaderBackgroundColor #333333
	DividerBackgroundColor #484848
    DividerBorderColor #484848
    DividerBorderThickness 2
    DividerFontColor #D8Bc00
	ReferenceBackgroundColor #333333
	ReferenceBorderColor #484848
	ReferenceFontColor #fefefe
	ReferenceHeaderBackgroundColor #484848
}


skinparam partition {
	BorderColor #303030
	FontColor #333333
	BackgroundColor #333333
}


skinparam collections {
		FontColor #C8Ac00
	BorderColor #333333
	BackgroundColor #333333-#333333
}


skinparam control {
		FontColor #C8Ac00
	BorderColor #333333
	BackgroundColor #333333-#333333
}


skinparam entity {
		FontColor #C8Ac00
	BorderColor #333333
	BackgroundColor #333333-#333333
}


skinparam boundary {
		FontColor #C8Ac00
	BorderColor #333333
	BackgroundColor #333333-#333333
}


skinparam agent {
	BackgroundColor #ff8000
	BorderColor #ff9933
	FontColor #484848
}


skinparam note {
	BorderThickness 1
	BackgroundColor #1b1b1a
	BorderColor #5e5e5e
	FontSize 11
	FontColor #a0a0a0
}


skinparam artifact {
	BorderThickness 10
	BorderColor #5e5e5e
	BackgroundColor #1b1b1a
	FontColor #D8Bc00
}


skinparam component {
		FontColor #C8Ac00
	BorderColor #333333
	BackgroundColor #333333-#333333
}


skinparam interface {
	BackgroundColor  #008400
	BorderColor  #007F00
	FontColor #484848
}


skinparam storage {
	BackgroundColor #ff8000
  	BorderColor #cc6600
	FontColor #222222
}


skinparam node {
	BackgroundColor #333333
	BorderColor #333333
	FontColor #C8Ac00
}


skinparam cloud {
	BackgroundColor #484848-black
	BorderColor #484848
	FontColor #D8Bc00
}


skinparam database {
		FontColor #C8Ac00
	BorderColor #333333
	BackgroundColor #333333-#333333
	BackgroundColor  #333333
}


skinparam class {
		FontColor #C8Ac00
	BorderColor #333333
	BackgroundColor #333333-#333333
	HeaderBackgroundColor #1b1b1a
    BackgroundColor #282828
    BorderColor #5e5e5e
 	StereotypeFontColor #a0a0a0
    StereotypeFontStyle bold
	BorderThickness 1
	AttributeFontColor #D8Bc00
	AttributeFontSize 11
    FontColor #D8Bc00
    FontStyle bold
}


skinparam object {
		FontColor #C8Ac00
	BorderColor #333333
	BackgroundColor #333333-#333333
	StereotypeFontColor #484848
	BorderThickness 1
	AttributeFontColor #fefefe
	AttributeFontSize 11
}


skinparam usecase {
		FontColor #C8Ac00
	BorderColor #333333
	BackgroundColor #333333-#333333
	BorderThickness 2
	StereotypeFontColor #303030
}


skinparam rectangle {
		FontColor #C8Ac00
	BorderColor #333333
	BackgroundColor #333333-#333333
	BackgroundColor #333333
	BorderThickness 2
	StereotypeFontColor #303030
}


skinparam package {
		FontColor #C8Ac00
	BorderColor #333333
	BackgroundColor #333333-#333333
	BackgroundColor #333333
	BorderThickness 2
}


skinparam folder {
	BackgroundColor #6d6d6d
  	BorderColor #ff8000
	FontColor #ff8000
	BorderThickness 2
}


skinparam frame {
	BackgroundColor #6d6d6d
  	BorderColor #0060a8
	FontColor #0060a8
	BorderThickness 2
}


skinparam state {
		FontColor #C8Ac00
	BorderColor #333333
	BackgroundColor #333333-#333333
	StartColor #0060a8
	EndColor #0060a8
	AttributeFontColor #fefefe
	AttributeFontSize 11
}


skinparam queue {
		FontColor #C8Ac00
	BorderColor #333333
	BackgroundColor #333333-#333333
}


skinparam card {
	BackgroundColor #0060a8
	BorderColor #004d86
	FontColor $INFO_TEXT
}


skinparam file {
	BackgroundColor #6d6d6d-#484848
	BorderColor #0060a8
	FontColor #fefefe
}


skinparam stack {
		FontColor #C8Ac00
	BorderColor #333333
	BackgroundColor #333333-#333333
}

    
    title "com.telenav.lexakai.annotations.visibility"
    
    annotation UmlExcludeMember
    
    annotation UmlExcludeSuperTypes
    
    annotation UmlExcludeType
    
    annotation UmlIncludeMember
    
    annotation UmlNotPublicApi
    
@enduml

PlantUML version 1.2021.01(Tue Feb 02 00:55:08 MST 2021)
(GPL source distribution)
Java Runtime: Java(TM) SE Runtime Environment
JVM: Java HotSpot(TM) 64-Bit Server VM
Default Encoding: UTF-8
Language: en
Country: US
--></g></svg>