<?xml version="1.0" encoding="UTF-8" standalone="no"?><svg xmlns="http://www.w3.org/2000/svg" xmlns:xlink="http://www.w3.org/1999/xlink" contentScriptType="application/ecmascript" contentStyleType="text/css" height="405.2083px" preserveAspectRatio="none" style="width:1007px;height:405px;background:#333333;" version="1.1" viewBox="0 0 1007 405" width="1007.2917px" zoomAndPan="magnify"><defs/><g><rect fill="#48494B" height="41.2028" rx="8.3333" ry="8.3333" style="stroke:#545454;stroke-width:1.0416666666666667;" width="348.9583" x="321.875" y="2.0833"/><text fill="#C0C0C0" font-family="Open Sans,Avenir,Nunito,Arial,Helvetica,SansSerif" font-size="20.8333" lengthAdjust="spacing" textLength="326.0417" x="333.3333" y="30.5583">com.telenav.lexakai.associations</text><polygon fill="#333333" points="730.2083,52.6611,844.7917,52.6611,852.0833,79.8828,945.8333,79.8828,945.8333,233.9111,730.2083,233.9111,730.2083,52.6611" style="stroke:#333333;stroke-width:2.0833333333333335;"/><line style="stroke:#333333;stroke-width:2.0833333333333335;" x1="730.2083" x2="852.0833" y1="79.8828" y2="79.8828"/><text fill="#C8AC00" font-family="Open Sans,Avenir,Nunito,Arial,Helvetica,SansSerif" font-size="12.5" font-weight="bold" lengthAdjust="spacing" textLength="102.0833" x="737.5" y="69.9544">UmlAssociation</text><rect codeLine="9" fill="#282828" height="107.2896" id="UmlAssociation.AssociationType" rx="8.3333" ry="8.3333" style="stroke:#5E5E5E;stroke-width:1.0416666666666667;" width="144.7917" x="775.5208" y="101.6195"/><rect fill="#1B1B1A" height="31.3883" rx="8.3333" ry="8.3333" style="stroke:#1B1B1A;stroke-width:1.0416666666666667;" width="144.7917" x="775.5208" y="101.6195"/><rect fill="#1B1B1A" height="8.3333" style="stroke:#1B1B1A;stroke-width:1.0416666666666667;" width="144.7917" x="775.5208" y="124.6745"/><rect codeLine="9" fill="none" height="107.2896" id="UmlAssociation.AssociationType" rx="8.3333" ry="8.3333" style="stroke:#5E5E5E;stroke-width:1.0416666666666667;" width="144.7917" x="775.5208" y="101.6195"/><ellipse cx="790.1042" cy="117.3136" fill="#CF6300" rx="10.4167" ry="10.4167" style="stroke:#EF8300;stroke-width:1.0416666666666667;"/><path d="M793.16,122.0011 L787.4837,122.0011 L787.4837,112.8886 L793.16,112.8886 L793.16,114.4755 L789.2843,114.4755 L789.2843,116.4408 L792.7938,116.4408 L792.7938,118.0278 L789.2843,118.0278 L789.2843,120.4142 L793.16,120.4142 Z " fill="#000000"/><text fill="#D8BC00" font-family="Open Sans,Avenir,Nunito,Arial,Helvetica,SansSerif" font-size="12.5" font-weight="bold" lengthAdjust="spacing" textLength="107.2917" x="806.7708" y="122.0378">AssociationType</text><line style="stroke:#5E5E5E;stroke-width:1.0416666666666667;" x1="776.5625" x2="919.2708" y1="133.0078" y2="133.0078"/><text fill="#D8BC00" font-family="Open Sans,Avenir,Nunito,Arial,Helvetica,SansSerif" font-size="11.4583" lengthAdjust="spacing" textLength="83.3333" x="784.8958" y="151.3774">AGGREGATION</text><text fill="#D8BC00" font-family="Open Sans,Avenir,Nunito,Arial,Helvetica,SansSerif" font-size="11.4583" lengthAdjust="spacing" textLength="80.2083" x="784.8958" y="171.1222">COMPOSITION</text><text fill="#D8BC00" font-family="Open Sans,Avenir,Nunito,Arial,Helvetica,SansSerif" font-size="11.4583" lengthAdjust="spacing" textLength="56.25" x="784.8958" y="190.8671">RELATION</text><line style="stroke:#5E5E5E;stroke-width:1.0416666666666667;" x1="776.5625" x2="919.2708" y1="200.5758" y2="200.5758"/><rect codeLine="7" fill="#282828" height="48.055" id="Comparable" rx="8.3333" ry="8.3333" style="stroke:#5E5E5E;stroke-width:1.0416666666666667;" width="115.625" x="585.9375" y="131.307"/><rect fill="#1B1B1A" height="31.3883" rx="8.3333" ry="8.3333" style="stroke:#1B1B1A;stroke-width:1.0416666666666667;" width="115.625" x="585.9375" y="131.307"/><rect fill="#1B1B1A" height="8.3333" style="stroke:#1B1B1A;stroke-width:1.0416666666666667;" width="115.625" x="585.9375" y="154.362"/><rect codeLine="7" fill="none" height="48.055" id="Comparable" rx="8.3333" ry="8.3333" style="stroke:#5E5E5E;stroke-width:1.0416666666666667;" width="115.625" x="585.9375" y="131.307"/><ellipse cx="600.5208" cy="147.0011" fill="#008400" rx="10.4167" ry="10.4167" style="stroke:#239C23;stroke-width:1.0416666666666667;"/><path d="M597.9248,144.163 L597.9248,142.5761 L603.3508,142.5761 L603.3508,144.163 L601.5381,144.163 L601.5381,150.1017 L603.3508,150.1017 L603.3508,151.6886 L597.9248,151.6886 L597.9248,150.1017 L599.7375,150.1017 L599.7375,144.163 Z " fill="#000000"/><text fill="#D8BC00" font-family="Open Sans,Avenir,Nunito,Arial,Helvetica,SansSerif" font-size="12.5" font-style="italic" font-weight="bold" lengthAdjust="spacing" textLength="78.125" x="617.1875" y="151.7253">Comparable</text><line style="stroke:#5E5E5E;stroke-width:1.0416666666666667;" x1="586.9792" x2="700.5208" y1="162.6953" y2="162.6953"/><line style="stroke:#5E5E5E;stroke-width:1.0416666666666667;" x1="586.9792" x2="700.5208" y1="171.0286" y2="171.0286"/><rect codeLine="17" fill="#282828" height="127.0345" id="UmlAssociation" rx="8.3333" ry="8.3333" style="stroke:#5E5E5E;stroke-width:1.0416666666666667;" width="758.3333" x="7.2917" y="271.4111"/><rect fill="#1B1B1A" height="31.3883" rx="8.3333" ry="8.3333" style="stroke:#1B1B1A;stroke-width:1.0416666666666667;" width="758.3333" x="7.2917" y="271.4111"/><rect fill="#1B1B1A" height="8.3333" style="stroke:#1B1B1A;stroke-width:1.0416666666666667;" width="758.3333" x="7.2917" y="294.4661"/><rect codeLine="17" fill="none" height="127.0345" id="UmlAssociation" rx="8.3333" ry="8.3333" style="stroke:#5E5E5E;stroke-width:1.0416666666666667;" width="758.3333" x="7.2917" y="271.4111"/><ellipse cx="328.125" cy="287.1053" fill="#0066CF" rx="10.4167" ry="10.4167" style="stroke:#0086EF;stroke-width:1.0416666666666667;"/><path d="M330.0354,291.5304 Q329.6082,291.7501 329.1382,291.8599 Q328.6682,291.9698 328.1494,291.9698 Q326.3062,291.9698 325.3357,290.7552 Q324.3652,289.5406 324.3652,287.2457 Q324.3652,284.9447 325.3357,283.7301 Q326.3062,282.5155 328.1494,282.5155 Q328.6682,282.5155 329.1443,282.6253 Q329.6204,282.7352 330.0354,282.9549 L330.0354,284.9569 Q329.5715,284.5296 329.1351,284.3313 Q328.6987,284.1329 328.2349,284.1329 Q327.2461,284.1329 326.7426,284.9172 Q326.239,285.7015 326.239,287.2457 Q326.239,288.7838 326.7426,289.5681 Q327.2461,290.3524 328.2349,290.3524 Q328.6987,290.3524 329.1351,290.154 Q329.5715,289.9556 330.0354,289.5284 Z " fill="#000000"/><text fill="#D8BC00" font-family="Open Sans,Avenir,Nunito,Arial,Helvetica,SansSerif" font-size="12.5" font-weight="bold" lengthAdjust="spacing" textLength="102.0833" x="351.0417" y="291.8294">UmlAssociation</text><line style="stroke:#5E5E5E;stroke-width:1.5625;" x1="8.3333" x2="764.5833" y1="302.7995" y2="302.7995"/><line style="stroke:#5E5E5E;stroke-width:1.0416666666666667;" x1="8.3333" x2="764.5833" y1="311.1328" y2="311.1328"/><ellipse cx="18.75" cy="322.5911" fill="#84BE84" rx="3.125" ry="3.125" style="stroke:#038048;stroke-width:1.0416666666666667;"/><text fill="#D8BC00" font-family="Open Sans,Avenir,Nunito,Arial,Helvetica,SansSerif" font-size="11.4583" lengthAdjust="spacing" textLength="128.125" x="30.2083" y="329.5024">AssociationType type()</text><ellipse cx="18.75" cy="342.336" fill="#84BE84" rx="3.125" ry="3.125" style="stroke:#038048;stroke-width:1.0416666666666667;"/><text fill="#D8BC00" font-family="Open Sans,Avenir,Nunito,Arial,Helvetica,SansSerif" font-size="11.4583" lengthAdjust="spacing" textLength="65.625" x="30.2083" y="349.2472">String uml()</text><ellipse cx="18.75" cy="362.0809" fill="#84BE84" rx="3.125" ry="3.125" style="stroke:#038048;stroke-width:1.0416666666666667;"/><text fill="#D8BC00" font-family="Open Sans,Avenir,Nunito,Arial,Helvetica,SansSerif" font-size="11.4583" lengthAdjust="spacing" textLength="719.7917" x="30.2083" y="368.9921">UmlAssociation umlAssociation(TypeDeclaration&lt;?&gt; referrer, AssociationType, Type referent, String from, String to, String label)</text><ellipse cx="18.75" cy="381.8258" fill="#84BE84" rx="3.125" ry="3.125" style="stroke:#038048;stroke-width:1.0416666666666667;"/><text fill="#D8BC00" font-family="Open Sans,Avenir,Nunito,Arial,Helvetica,SansSerif" font-size="11.4583" lengthAdjust="spacing" textLength="726.0417" x="30.2083" y="388.737">UmlAssociation umlAssociation(TypeDeclaration&lt;?&gt; referrer, AssociationType, String referent, String from, String to, String label)</text><rect codeLine="27" fill="#282828" height="111.4563" id="UmlInheritance" rx="8.3333" ry="8.3333" style="stroke:#5E5E5E;stroke-width:1.0416666666666667;" width="197.9167" x="802.0833" y="279.2236"/><rect fill="#1B1B1A" height="31.3883" rx="8.3333" ry="8.3333" style="stroke:#1B1B1A;stroke-width:1.0416666666666667;" width="197.9167" x="802.0833" y="279.2236"/><rect fill="#1B1B1A" height="8.3333" style="stroke:#1B1B1A;stroke-width:1.0416666666666667;" width="197.9167" x="802.0833" y="302.2786"/><rect codeLine="27" fill="none" height="111.4563" id="UmlInheritance" rx="8.3333" ry="8.3333" style="stroke:#5E5E5E;stroke-width:1.0416666666666667;" width="197.9167" x="802.0833" y="279.2236"/><ellipse cx="844.7917" cy="294.9178" fill="#0066CF" rx="10.4167" ry="10.4167" style="stroke:#0086EF;stroke-width:1.0416666666666667;"/><path d="M846.7021,299.3429 Q846.2748,299.5626 845.8049,299.6724 Q845.3349,299.7823 844.8161,299.7823 Q842.9728,299.7823 842.0024,298.5677 Q841.0319,297.3531 841.0319,295.0582 Q841.0319,292.7572 842.0024,291.5426 Q842.9728,290.328 844.8161,290.328 Q845.3349,290.328 845.811,290.4378 Q846.287,290.5477 846.7021,290.7674 L846.7021,292.7694 Q846.2382,292.3421 845.8018,292.1438 Q845.3654,291.9454 844.9015,291.9454 Q843.9128,291.9454 843.4092,292.7297 Q842.9057,293.514 842.9057,295.0582 Q842.9057,296.5963 843.4092,297.3806 Q843.9128,298.1649 844.9015,298.1649 Q845.3654,298.1649 845.8018,297.9665 Q846.2382,297.7681 846.7021,297.3409 Z " fill="#000000"/><text fill="#D8BC00" font-family="Open Sans,Avenir,Nunito,Arial,Helvetica,SansSerif" font-size="12.5" font-weight="bold" lengthAdjust="spacing" textLength="97.9167" x="867.7083" y="299.6419">UmlInheritance</text><line style="stroke:#5E5E5E;stroke-width:1.5625;" x1="803.125" x2="998.9583" y1="310.612" y2="310.612"/><ellipse cx="813.5417" cy="345.9819" fill="#84BE84" rx="3.125" ry="3.125" style="stroke:#038048;stroke-width:1.0416666666666667;"/><text fill="#D8BC00" font-family="Open Sans,Avenir,Nunito,Arial,Helvetica,SansSerif" font-size="11.4583" lengthAdjust="spacing" textLength="165.625" x="825" y="352.8931">UmlInheritance(String, String)</text><line style="stroke:#5E5E5E;stroke-width:1.0416666666666667;" x1="803.125" x2="857.2917" y1="328.8177" y2="328.8177"/><text fill="#D8BC00" font-family="Open Sans,Avenir,Nunito,Arial,Helvetica,SansSerif" font-size="11.4583" lengthAdjust="spacing" textLength="81.25" x="860.4167" y="332.6274">(constructors)</text><line style="stroke:#5E5E5E;stroke-width:1.0416666666666667;" x1="944.7917" x2="998.9583" y1="328.8177" y2="328.8177"/><line style="stroke:#5E5E5E;stroke-width:1.0416666666666667;" x1="803.125" x2="998.9583" y1="362.6017" y2="362.6017"/><ellipse cx="813.5417" cy="374.0601" fill="#84BE84" rx="3.125" ry="3.125" style="stroke:#038048;stroke-width:1.0416666666666667;"/><text fill="#D8BC00" font-family="Open Sans,Avenir,Nunito,Arial,Helvetica,SansSerif" font-size="11.4583" lengthAdjust="spacing" textLength="65.625" x="825" y="380.9713">String uml()</text><path codeLine="16" d="M591.4271,192.432 C558.7083,215.0049 515.6875,244.7028 477.5104,271.057 " fill="none" id="Comparable-backto-UmlAssociation" style="stroke:#545454;stroke-width:1.5625;"/><polygon fill="none" points="587.2604,186.4424,608.5521,180.609,595.5521,198.4424,587.2604,186.4424" style="stroke:#545454;stroke-width:1.5625;"/><path codeLine="26" d="M670.3229,197.9528 C683.8333,216.2861 701.6771,236.7445 721.875,250.5778 C746.0417,267.1195 757.4792,259.8278 784.375,271.4111 C790.0729,273.8695 795.8646,276.4945 801.6771,279.2445 " fill="none" id="Comparable-backto-UmlInheritance" style="stroke:#545454;stroke-width:1.5625;"/><polygon fill="none" points="664.4167,202.234,658.5729,180.9424,676.4167,193.932,664.4167,202.234" style="stroke:#545454;stroke-width:1.5625;"/></g></svg>
