<?xml version="1.0" encoding="UTF-8" standalone="no"?><svg xmlns="http://www.w3.org/2000/svg" xmlns:xlink="http://www.w3.org/1999/xlink" contentScriptType="application/ecmascript" contentStyleType="text/css" height="552.0833px" preserveAspectRatio="none" style="width:714px;height:552px;background:#333333;" version="1.1" viewBox="0 0 714 552" width="714.5833px" zoomAndPan="magnify"><defs/><g><rect fill="#48494B" height="41.2028" rx="8.3333" ry="8.3333" style="stroke:#545454;stroke-width:1.0416666666666667;" width="294.7917" x="202.8646" y="2.0833"/><text fill="#C0C0C0" font-family="Open Sans,Avenir,Nunito,Arial,Helvetica,SansSerif" font-size="20.8333" lengthAdjust="spacing" textLength="271.875" x="214.3229" y="30.5583">com.telenav.lexakai.quality</text><rect codeLine="7" fill="#282828" height="48.055" id="Comparable" rx="8.3333" ry="8.3333" style="stroke:#5E5E5E;stroke-width:1.0416666666666667;" width="115.625" x="121.3542" y="73.4945"/><rect fill="#1B1B1A" height="31.3883" rx="8.3333" ry="8.3333" style="stroke:#1B1B1A;stroke-width:1.0416666666666667;" width="115.625" x="121.3542" y="73.4945"/><rect fill="#1B1B1A" height="8.3333" style="stroke:#1B1B1A;stroke-width:1.0416666666666667;" width="115.625" x="121.3542" y="96.5495"/><rect codeLine="7" fill="none" height="48.055" id="Comparable" rx="8.3333" ry="8.3333" style="stroke:#5E5E5E;stroke-width:1.0416666666666667;" width="115.625" x="121.3542" y="73.4945"/><ellipse cx="135.9375" cy="89.1886" fill="#008400" rx="10.4167" ry="10.4167" style="stroke:#239C23;stroke-width:1.0416666666666667;"/><path d="M133.3415,86.3505 L133.3415,84.7636 L138.7675,84.7636 L138.7675,86.3505 L136.9548,86.3505 L136.9548,92.2892 L138.7675,92.2892 L138.7675,93.8761 L133.3415,93.8761 L133.3415,92.2892 L135.1542,92.2892 L135.1542,86.3505 Z " fill="#000000"/><text fill="#D8BC00" font-family="Open Sans,Avenir,Nunito,Arial,Helvetica,SansSerif" font-size="12.5" font-style="italic" font-weight="bold" lengthAdjust="spacing" textLength="78.125" x="152.6042" y="93.9128">Comparable</text><line style="stroke:#5E5E5E;stroke-width:1.0416666666666667;" x1="122.3958" x2="235.9375" y1="104.8828" y2="104.8828"/><line style="stroke:#5E5E5E;stroke-width:1.0416666666666667;" x1="122.3958" x2="235.9375" y1="113.2161" y2="113.2161"/><rect codeLine="10" fill="#282828" height="341.1499" id="CodeQualityAnalysis" rx="8.3333" ry="8.3333" style="stroke:#5E5E5E;stroke-width:1.0416666666666667;" width="343.75" x="7.2917" y="203.7028"/><rect fill="#1B1B1A" height="31.3883" rx="8.3333" ry="8.3333" style="stroke:#1B1B1A;stroke-width:1.0416666666666667;" width="343.75" x="7.2917" y="203.7028"/><rect fill="#1B1B1A" height="8.3333" style="stroke:#1B1B1A;stroke-width:1.0416666666666667;" width="343.75" x="7.2917" y="226.7578"/><rect codeLine="10" fill="none" height="341.1499" id="CodeQualityAnalysis" rx="8.3333" ry="8.3333" style="stroke:#5E5E5E;stroke-width:1.0416666666666667;" width="343.75" x="7.2917" y="203.7028"/><ellipse cx="104.1667" cy="219.397" fill="#0066CF" rx="10.4167" ry="10.4167" style="stroke:#0086EF;stroke-width:1.0416666666666667;"/><path d="M106.0771,223.822 Q105.6498,224.0417 105.1799,224.1516 Q104.7099,224.2615 104.1911,224.2615 Q102.3478,224.2615 101.3774,223.0469 Q100.4069,221.8323 100.4069,219.5374 Q100.4069,217.2363 101.3774,216.0217 Q102.3478,214.8071 104.1911,214.8071 Q104.7099,214.8071 105.186,214.917 Q105.662,215.0269 106.0771,215.2466 L106.0771,217.2485 Q105.6132,216.8213 105.1768,216.6229 Q104.7404,216.4246 104.2765,216.4246 Q103.2878,216.4246 102.7842,217.2089 Q102.2807,217.9932 102.2807,219.5374 Q102.2807,221.0754 102.7842,221.8597 Q103.2878,222.644 104.2765,222.644 Q104.7404,222.644 105.1768,222.4457 Q105.6132,222.2473 106.0771,221.8201 Z " fill="#000000"/><text fill="#D8BC00" font-family="Open Sans,Avenir,Nunito,Arial,Helvetica,SansSerif" font-size="12.5" font-weight="bold" lengthAdjust="spacing" textLength="135.4167" x="127.0833" y="224.1211">CodeQualityAnalysis</text><line style="stroke:#5E5E5E;stroke-width:1.5625;" x1="8.3333" x2="350" y1="235.0911" y2="235.0911"/><ellipse cx="18.75" cy="270.461" fill="#84BE84" rx="3.125" ry="3.125" style="stroke:#038048;stroke-width:1.0416666666666667;"/><text fill="#D8BC00" font-family="Open Sans,Avenir,Nunito,Arial,Helvetica,SansSerif" font-size="11.4583" lengthAdjust="spacing" textLength="204.1667" x="30.2083" y="277.3722">CodeQualityAnalysis(LexakaiProject)</text><line style="stroke:#5E5E5E;stroke-width:1.0416666666666667;" x1="8.3333" x2="135.4167" y1="253.2969" y2="253.2969"/><text fill="#D8BC00" font-family="Open Sans,Avenir,Nunito,Arial,Helvetica,SansSerif" font-size="11.4583" lengthAdjust="spacing" textLength="81.25" x="138.5417" y="257.1065">(constructors)</text><line style="stroke:#5E5E5E;stroke-width:1.0416666666666667;" x1="222.9167" x2="350" y1="253.2969" y2="253.2969"/><line style="stroke:#5E5E5E;stroke-width:1.0416666666666667;" x1="8.3333" x2="350" y1="287.0809" y2="287.0809"/><ellipse cx="18.75" cy="298.5392" fill="#84BE84" rx="3.125" ry="3.125" style="stroke:#038048;stroke-width:1.0416666666666667;"/><text fill="#D8BC00" font-family="Open Sans,Avenir,Nunito,Arial,Helvetica,SansSerif" font-size="11.4583" lengthAdjust="spacing" textLength="81.25" x="30.2083" y="305.4504">String details()</text><ellipse cx="18.75" cy="318.2841" fill="#84BE84" rx="3.125" ry="3.125" style="stroke:#038048;stroke-width:1.0416666666666667;"/><text fill="#D8BC00" font-family="Open Sans,Avenir,Nunito,Arial,Helvetica,SansSerif" font-size="11.4583" lengthAdjust="spacing" textLength="131.25" x="30.2083" y="325.1953">LexakaiProject project()</text><ellipse cx="18.75" cy="338.029" fill="#84BE84" rx="3.125" ry="3.125" style="stroke:#038048;stroke-width:1.0416666666666667;"/><text fill="#D8BC00" font-family="Open Sans,Avenir,Nunito,Arial,Helvetica,SansSerif" font-size="11.4583" lengthAdjust="spacing" textLength="103.125" x="30.2083" y="344.9402">String totalTypes()</text><ellipse cx="18.75" cy="381.6854" fill="#84BE84" rx="3.125" ry="3.125" style="stroke:#038048;stroke-width:1.0416666666666667;"/><text fill="#D8BC00" font-family="Open Sans,Avenir,Nunito,Arial,Helvetica,SansSerif" font-size="11.4583" lengthAdjust="spacing" textLength="170.8333" x="30.2083" y="388.5966">void add(TypeDeclaration&lt;?&gt;)</text><ellipse cx="18.75" cy="401.4303" fill="#84BE84" rx="3.125" ry="3.125" style="stroke:#038048;stroke-width:1.0416666666666667;"/><text fill="#D8BC00" font-family="Open Sans,Avenir,Nunito,Arial,Helvetica,SansSerif" font-size="11.4583" lengthAdjust="spacing" textLength="311.4583" x="30.2083" y="408.3415">void addToVariableMap(VariableMap&lt;String&gt; variables)</text><ellipse cx="18.75" cy="421.1751" fill="#84BE84" rx="3.125" ry="3.125" style="stroke:#038048;stroke-width:1.0416666666666667;"/><text fill="#D8BC00" font-family="Open Sans,Avenir,Nunito,Arial,Helvetica,SansSerif" font-size="11.4583" lengthAdjust="spacing" textLength="116.6667" x="30.2083" y="428.0863">StringList summary()</text><ellipse cx="18.75" cy="440.92" fill="#84BE84" rx="3.125" ry="3.125" style="stroke:#038048;stroke-width:1.0416666666666667;"/><text fill="#D8BC00" font-family="Open Sans,Avenir,Nunito,Arial,Helvetica,SansSerif" font-size="11.4583" lengthAdjust="spacing" textLength="115.625" x="30.2083" y="447.8312">StringList warnings()</text><line style="stroke:#5E5E5E;stroke-width:1.0416666666666667;" x1="8.3333" x2="144.7917" y1="364.5213" y2="364.5213"/><text fill="#D8BC00" font-family="Open Sans,Avenir,Nunito,Arial,Helvetica,SansSerif" font-size="11.4583" lengthAdjust="spacing" textLength="62.5" x="147.9167" y="368.3309">(collection)</text><line style="stroke:#5E5E5E;stroke-width:1.0416666666666667;" x1="213.5417" x2="350" y1="364.5213" y2="364.5213"/><ellipse cx="18.75" cy="484.5764" fill="#84BE84" rx="3.125" ry="3.125" style="stroke:#038048;stroke-width:1.0416666666666667;"/><text fill="#D8BC00" font-family="Open Sans,Avenir,Nunito,Arial,Helvetica,SansSerif" font-size="11.4583" lengthAdjust="spacing" textLength="190.625" x="30.2083" y="491.4876">String projectQualityMeter(Folder)</text><line style="stroke:#5E5E5E;stroke-width:1.0416666666666667;" x1="8.3333" x2="148.4375" y1="467.4123" y2="467.4123"/><text fill="#D8BC00" font-family="Open Sans,Avenir,Nunito,Arial,Helvetica,SansSerif" font-size="11.4583" lengthAdjust="spacing" textLength="55.2083" x="151.5625" y="471.2219">(distance)</text><line style="stroke:#5E5E5E;stroke-width:1.0416666666666667;" x1="209.8958" x2="350" y1="467.4123" y2="467.4123"/><ellipse cx="18.75" cy="528.2328" fill="#84BE84" rx="3.125" ry="3.125" style="stroke:#038048;stroke-width:1.0416666666666667;"/><text fill="#D8BC00" font-family="Open Sans,Avenir,Nunito,Arial,Helvetica,SansSerif" font-size="11.4583" lengthAdjust="spacing" textLength="137.5" x="30.2083" y="535.144">Percent qualityEstimate()</text><line style="stroke:#5E5E5E;stroke-width:1.0416666666666667;" x1="8.3333" x2="157.8125" y1="511.0687" y2="511.0687"/><text fill="#D8BC00" font-family="Open Sans,Avenir,Nunito,Arial,Helvetica,SansSerif" font-size="11.4583" lengthAdjust="spacing" textLength="36.4583" x="160.9375" y="514.8783">(math)</text><line style="stroke:#5E5E5E;stroke-width:1.0416666666666667;" x1="200.5208" x2="350" y1="511.0687" y2="511.0687"/><rect codeLine="29" fill="#282828" height="87.5448" id="CodeQualityOfType" rx="8.3333" ry="8.3333" style="stroke:#5E5E5E;stroke-width:1.0416666666666667;" width="434.375" x="273.4375" y="53.7028"/><rect fill="#1B1B1A" height="31.3883" rx="8.3333" ry="8.3333" style="stroke:#1B1B1A;stroke-width:1.0416666666666667;" width="434.375" x="273.4375" y="53.7028"/><rect fill="#1B1B1A" height="8.3333" style="stroke:#1B1B1A;stroke-width:1.0416666666666667;" width="434.375" x="273.4375" y="76.7578"/><rect codeLine="29" fill="none" height="87.5448" id="CodeQualityOfType" rx="8.3333" ry="8.3333" style="stroke:#5E5E5E;stroke-width:1.0416666666666667;" width="434.375" x="273.4375" y="53.7028"/><ellipse cx="419.7917" cy="69.397" fill="#0066CF" rx="10.4167" ry="10.4167" style="stroke:#0086EF;stroke-width:1.0416666666666667;"/><path d="M421.7021,73.822 Q421.2748,74.0417 420.8049,74.1516 Q420.3349,74.2615 419.8161,74.2615 Q417.9728,74.2615 417.0024,73.0469 Q416.0319,71.8323 416.0319,69.5374 Q416.0319,67.2363 417.0024,66.0217 Q417.9728,64.8071 419.8161,64.8071 Q420.3349,64.8071 420.811,64.917 Q421.287,65.0269 421.7021,65.2466 L421.7021,67.2485 Q421.2382,66.8213 420.8018,66.6229 Q420.3654,66.4246 419.9015,66.4246 Q418.9128,66.4246 418.4092,67.2089 Q417.9057,67.9932 417.9057,69.5374 Q417.9057,71.0754 418.4092,71.8597 Q418.9128,72.644 419.9015,72.644 Q420.3654,72.644 420.8018,72.4457 Q421.2382,72.2473 421.7021,71.8201 Z " fill="#000000"/><text fill="#D8BC00" font-family="Open Sans,Avenir,Nunito,Arial,Helvetica,SansSerif" font-size="12.5" font-weight="bold" lengthAdjust="spacing" textLength="127.0833" x="442.7083" y="74.1211">CodeQualityOfType</text><line style="stroke:#5E5E5E;stroke-width:1.5625;" x1="274.4792" x2="706.7708" y1="85.0911" y2="85.0911"/><line style="stroke:#5E5E5E;stroke-width:1.0416666666666667;" x1="274.4792" x2="706.7708" y1="93.4245" y2="93.4245"/><ellipse cx="284.8958" cy="104.8828" fill="#84BE84" rx="3.125" ry="3.125" style="stroke:#038048;stroke-width:1.0416666666666667;"/><text fill="#D8BC00" font-family="Open Sans,Avenir,Nunito,Arial,Helvetica,SansSerif" font-size="11.4583" lengthAdjust="spacing" textLength="97.9167" x="296.3542" y="111.794">String problems()</text><ellipse cx="284.8958" cy="124.6277" fill="#84BE84" rx="3.125" ry="3.125" style="stroke:#038048;stroke-width:1.0416666666666667;"/><text fill="#D8BC00" font-family="Open Sans,Avenir,Nunito,Arial,Helvetica,SansSerif" font-size="11.4583" lengthAdjust="spacing" textLength="402.0833" x="296.3542" y="131.5389">CodeQualityOfType quality(String typeName, NodeWithAnnotations&lt;?&gt;)</text><path codeLine="9" d="M179.1667,143.7445 C179.1667,160.8695 179.1667,181.5361 179.1667,203.3695 " fill="none" id="Comparable-backto-CodeQualityAnalysis" style="stroke:#545454;stroke-width:1.5625;"/><polygon fill="none" points="171.875,143.8799,179.1667,123.0465,186.4583,143.8799,171.875,143.8799" style="stroke:#545454;stroke-width:1.5625;"/></g></svg>
