<?xml version="1.0" encoding="UTF-8" standalone="no"?><svg xmlns="http://www.w3.org/2000/svg" xmlns:xlink="http://www.w3.org/1999/xlink" contentScriptType="application/ecmascript" contentStyleType="text/css" height="108.3333px" preserveAspectRatio="none" style="width:351px;height:108px;background:#333333;" version="1.1" viewBox="0 0 351 108" width="351.0417px" zoomAndPan="magnify"><defs/><g><rect fill="#48494B" height="41.2028" rx="8.3333" ry="8.3333" style="stroke:#545454;stroke-width:1.0416666666666667;" width="338.5417" x="2.0833" y="2.0833"/><text fill="#C0C0C0" font-family="Open Sans,Avenir,Nunito,Arial,Helvetica,SansSerif" font-size="20.8333" lengthAdjust="spacing" textLength="315.625" x="13.5417" y="30.5583">com.telenav.lexakai.application</text><rect codeLine="7" fill="#282828" height="48.055" id="Unused" rx="8.3333" ry="8.3333" style="stroke:#5E5E5E;stroke-width:1.0416666666666667;" width="86.4583" x="128.6458" y="53.7028"/><rect fill="#1B1B1A" height="31.3883" rx="8.3333" ry="8.3333" style="stroke:#1B1B1A;stroke-width:1.0416666666666667;" width="86.4583" x="128.6458" y="53.7028"/><rect fill="#1B1B1A" height="8.3333" style="stroke:#1B1B1A;stroke-width:1.0416666666666667;" width="86.4583" x="128.6458" y="76.7578"/><rect codeLine="7" fill="none" height="48.055" id="Unused" rx="8.3333" ry="8.3333" style="stroke:#5E5E5E;stroke-width:1.0416666666666667;" width="86.4583" x="128.6458" y="53.7028"/><ellipse cx="143.2292" cy="69.397" fill="#0066CF" rx="10.4167" ry="10.4167" style="stroke:#0086EF;stroke-width:1.0416666666666667;"/><path d="M145.1396,73.822 Q144.7123,74.0417 144.2424,74.1516 Q143.7724,74.2615 143.2536,74.2615 Q141.4103,74.2615 140.4399,73.0469 Q139.4694,71.8323 139.4694,69.5374 Q139.4694,67.2363 140.4399,66.0217 Q141.4103,64.8071 143.2536,64.8071 Q143.7724,64.8071 144.2485,64.917 Q144.7245,65.0269 145.1396,65.2466 L145.1396,67.2485 Q144.6757,66.8213 144.2393,66.6229 Q143.8029,66.4246 143.339,66.4246 Q142.3503,66.4246 141.8467,67.2089 Q141.3432,67.9932 141.3432,69.5374 Q141.3432,71.0754 141.8467,71.8597 Q142.3503,72.644 143.339,72.644 Q143.8029,72.644 144.2393,72.4457 Q144.6757,72.2473 145.1396,71.8201 Z " fill="#000000"/><text fill="#D8BC00" font-family="Open Sans,Avenir,Nunito,Arial,Helvetica,SansSerif" font-size="12.5" font-weight="bold" lengthAdjust="spacing" textLength="48.9583" x="159.8958" y="74.1211">Unused</text><line style="stroke:#5E5E5E;stroke-width:1.0416666666666667;" x1="129.6875" x2="214.0625" y1="85.0911" y2="85.0911"/><line style="stroke:#5E5E5E;stroke-width:1.0416666666666667;" x1="129.6875" x2="214.0625" y1="93.4245" y2="93.4245"/></g></svg>
