<?xml version="1.0" encoding="UTF-8" standalone="no"?><svg xmlns="http://www.w3.org/2000/svg" xmlns:xlink="http://www.w3.org/1999/xlink" contentScriptType="application/ecmascript" contentStyleType="text/css" height="218.75px" preserveAspectRatio="none" style="width:456px;height:218px;background:#333333;" version="1.1" viewBox="0 0 456 218" width="456.25px" zoomAndPan="magnify"><defs/><g><rect fill="#48494B" height="41.2028" rx="8.3333" ry="8.3333" style="stroke:#545454;stroke-width:1.0416666666666667;" width="443.75" x="2.0833" y="2.0833"/><text fill="#C0C0C0" font-family="Open Sans,Avenir,Nunito,Arial,Helvetica,SansSerif" font-size="20.8333" lengthAdjust="spacing" textLength="420.8333" x="13.5417" y="30.5583">com.telenav.lexakai.annotations.repeaters</text><!--MD5=[ff84204d3ef460f71571ed43b7f608bd]
class UmlDiagramRepeater--><rect codeLine="6" fill="#282828" height="48.055" id="UmlDiagramRepeater" rx="8.3333" ry="8.3333" style="stroke:#5E5E5E;stroke-width:1.0416666666666667;" width="175" x="33.8542" y="53.7028"/><rect fill="#1B1B1A" height="31.3883" rx="8.3333" ry="8.3333" style="stroke:#1B1B1A;stroke-width:1.0416666666666667;" width="175" x="33.8542" y="53.7028"/><rect fill="#1B1B1A" height="8.3333" style="stroke:#1B1B1A;stroke-width:1.0416666666666667;" width="175" x="33.8542" y="76.7578"/><rect codeLine="6" fill="none" height="48.055" id="UmlDiagramRepeater" rx="8.3333" ry="8.3333" style="stroke:#5E5E5E;stroke-width:1.0416666666666667;" width="175" x="33.8542" y="53.7028"/><ellipse cx="48.4375" cy="69.397" fill="#3380B9" rx="10.4167" ry="10.4167" style="stroke:#004D86;stroke-width:1.0416666666666667;"/><path d="M50.2096,69.456 Q50.2096,68.7663 49.8983,68.3757 Q49.587,67.985 49.0438,67.985 Q48.5006,67.985 48.1923,68.3757 Q47.8841,68.7663 47.8841,69.456 Q47.8841,70.1518 48.1923,70.5424 Q48.5006,70.933 49.0438,70.933 Q49.587,70.933 49.8983,70.5424 Q50.2096,70.1518 50.2096,69.456 Z M51.3448,71.9584 L50.1485,71.9584 L50.1485,71.4579 Q49.9166,71.7814 49.6023,71.9309 Q49.2879,72.0805 48.8485,72.0805 Q47.8475,72.0805 47.2341,71.3603 Q46.6207,70.6401 46.6207,69.456 Q46.6207,68.278 47.231,67.5608 Q47.8414,66.8437 48.8485,66.8437 Q49.2818,66.8437 49.6114,66.9932 Q49.941,67.1427 50.1485,67.4296 L50.1485,67.1794 Q50.1485,66.3493 49.6938,65.8976 Q49.2391,65.446 48.3968,65.446 Q47.1273,65.446 46.3247,66.5629 Q45.5221,67.6799 45.5221,69.4682 Q45.5221,71.342 46.4498,72.4497 Q47.3775,73.5575 48.9217,73.5575 Q49.41,73.5575 49.8678,73.4141 Q50.3255,73.2707 50.7467,72.9838 L51.3082,74.058 Q50.8138,74.3937 50.2309,74.5616 Q49.648,74.7294 48.9827,74.7294 Q46.8465,74.7294 45.577,73.3073 Q44.3075,71.8852 44.3075,69.4682 Q44.3075,67.1061 45.4488,65.6871 Q46.5902,64.268 48.4701,64.268 Q49.8006,64.268 50.5727,65.0706 Q51.3448,65.8732 51.3448,67.2587 Z " fill="#000000"/><text fill="#D8BC00" font-family="Open Sans,Avenir,Nunito,Arial,Helvetica,SansSerif" font-size="12.5" font-weight="bold" lengthAdjust="spacing" textLength="137.5" x="65.1042" y="74.1211">UmlDiagramRepeater</text><line style="stroke:#5E5E5E;stroke-width:1.0416666666666667;" x1="34.8958" x2="207.8125" y1="85.0911" y2="85.0911"/><line style="stroke:#5E5E5E;stroke-width:1.0416666666666667;" x1="34.8958" x2="207.8125" y1="93.4245" y2="93.4245"/><!--MD5=[9f4d9c0c2090ec6ed0bd117b53a542af]
class UmlExcludeTypeRepeater--><rect codeLine="8" fill="#282828" height="48.055" id="UmlExcludeTypeRepeater" rx="8.3333" ry="8.3333" style="stroke:#5E5E5E;stroke-width:1.0416666666666667;" width="200" x="245.3125" y="53.7028"/><rect fill="#1B1B1A" height="31.3883" rx="8.3333" ry="8.3333" style="stroke:#1B1B1A;stroke-width:1.0416666666666667;" width="200" x="245.3125" y="53.7028"/><rect fill="#1B1B1A" height="8.3333" style="stroke:#1B1B1A;stroke-width:1.0416666666666667;" width="200" x="245.3125" y="76.7578"/><rect codeLine="8" fill="none" height="48.055" id="UmlExcludeTypeRepeater" rx="8.3333" ry="8.3333" style="stroke:#5E5E5E;stroke-width:1.0416666666666667;" width="200" x="245.3125" y="53.7028"/><ellipse cx="259.8958" cy="69.397" fill="#3380B9" rx="10.4167" ry="10.4167" style="stroke:#004D86;stroke-width:1.0416666666666667;"/><path d="M261.6679,69.456 Q261.6679,68.7663 261.3566,68.3757 Q261.0453,67.985 260.5021,67.985 Q259.9589,67.985 259.6507,68.3757 Q259.3424,68.7663 259.3424,69.456 Q259.3424,70.1518 259.6507,70.5424 Q259.9589,70.933 260.5021,70.933 Q261.0453,70.933 261.3566,70.5424 Q261.6679,70.1518 261.6679,69.456 Z M262.8031,71.9584 L261.6069,71.9584 L261.6069,71.4579 Q261.3749,71.7814 261.0606,71.9309 Q260.7463,72.0805 260.3068,72.0805 Q259.3058,72.0805 258.6924,71.3603 Q258.079,70.6401 258.079,69.456 Q258.079,68.278 258.6894,67.5608 Q259.2997,66.8437 260.3068,66.8437 Q260.7402,66.8437 261.0697,66.9932 Q261.3993,67.1427 261.6069,67.4296 L261.6069,67.1794 Q261.6069,66.3493 261.1521,65.8976 Q260.6974,65.446 259.8551,65.446 Q258.5856,65.446 257.783,66.5629 Q256.9804,67.6799 256.9804,69.4682 Q256.9804,71.342 257.9081,72.4497 Q258.8359,73.5575 260.38,73.5575 Q260.8683,73.5575 261.3261,73.4141 Q261.7839,73.2707 262.205,72.9838 L262.7665,74.058 Q262.2721,74.3937 261.6892,74.5616 Q261.1064,74.7294 260.4411,74.7294 Q258.3049,74.7294 257.0353,73.3073 Q255.7658,71.8852 255.7658,69.4682 Q255.7658,67.1061 256.9071,65.6871 Q258.0485,64.268 259.9284,64.268 Q261.259,64.268 262.031,65.0706 Q262.8031,65.8732 262.8031,67.2587 Z " fill="#000000"/><text fill="#D8BC00" font-family="Open Sans,Avenir,Nunito,Arial,Helvetica,SansSerif" font-size="12.5" font-weight="bold" lengthAdjust="spacing" textLength="162.5" x="276.5625" y="74.1211">UmlExcludeTypeRepeater</text><line style="stroke:#5E5E5E;stroke-width:1.0416666666666667;" x1="246.3542" x2="444.2708" y1="85.0911" y2="85.0911"/><line style="stroke:#5E5E5E;stroke-width:1.0416666666666667;" x1="246.3542" x2="444.2708" y1="93.4245" y2="93.4245"/><!--MD5=[a195133bc384763248a299002e5378c2]
class UmlMethodGroupRepeater--><rect codeLine="10" fill="#282828" height="48.055" id="UmlMethodGroupRepeater" rx="8.3333" ry="8.3333" style="stroke:#5E5E5E;stroke-width:1.0416666666666667;" width="208.3333" x="17.1875" y="164.1195"/><rect fill="#1B1B1A" height="31.3883" rx="8.3333" ry="8.3333" style="stroke:#1B1B1A;stroke-width:1.0416666666666667;" width="208.3333" x="17.1875" y="164.1195"/><rect fill="#1B1B1A" height="8.3333" style="stroke:#1B1B1A;stroke-width:1.0416666666666667;" width="208.3333" x="17.1875" y="187.1745"/><rect codeLine="10" fill="none" height="48.055" id="UmlMethodGroupRepeater" rx="8.3333" ry="8.3333" style="stroke:#5E5E5E;stroke-width:1.0416666666666667;" width="208.3333" x="17.1875" y="164.1195"/><ellipse cx="31.7708" cy="179.8136" fill="#3380B9" rx="10.4167" ry="10.4167" style="stroke:#004D86;stroke-width:1.0416666666666667;"/><path d="M33.5429,179.8726 Q33.5429,179.1829 33.2316,178.7923 Q32.9203,178.4017 32.3771,178.4017 Q31.8339,178.4017 31.5257,178.7923 Q31.2174,179.1829 31.2174,179.8726 Q31.2174,180.5684 31.5257,180.9591 Q31.8339,181.3497 32.3771,181.3497 Q32.9203,181.3497 33.2316,180.9591 Q33.5429,180.5684 33.5429,179.8726 Z M34.6781,182.3751 L33.4819,182.3751 L33.4819,181.8746 Q33.2499,182.1981 32.9356,182.3476 Q32.6213,182.4972 32.1818,182.4972 Q31.1808,182.4972 30.5674,181.7769 Q29.954,181.0567 29.954,179.8726 Q29.954,178.6947 30.5644,177.9775 Q31.1747,177.2603 32.1818,177.2603 Q32.6152,177.2603 32.9447,177.4099 Q33.2743,177.5594 33.4819,177.8463 L33.4819,177.596 Q33.4819,176.766 33.0271,176.3143 Q32.5724,175.8626 31.7301,175.8626 Q30.4606,175.8626 29.658,176.9796 Q28.8554,178.0965 28.8554,179.8848 Q28.8554,181.7586 29.7831,182.8664 Q30.7109,183.9742 32.255,183.9742 Q32.7433,183.9742 33.2011,183.8308 Q33.6589,183.6873 34.08,183.4005 L34.6415,184.4747 Q34.1471,184.8104 33.5642,184.9782 Q32.9814,185.1461 32.3161,185.1461 Q30.1799,185.1461 28.9103,183.724 Q27.6408,182.3018 27.6408,179.8848 Q27.6408,177.5228 28.7821,176.1037 Q29.9235,174.6847 31.8034,174.6847 Q33.134,174.6847 33.906,175.4873 Q34.6781,176.2899 34.6781,177.6754 Z " fill="#000000"/><text fill="#D8BC00" font-family="Open Sans,Avenir,Nunito,Arial,Helvetica,SansSerif" font-size="12.5" font-weight="bold" lengthAdjust="spacing" textLength="170.8333" x="48.4375" y="184.5378">UmlMethodGroupRepeater</text><line style="stroke:#5E5E5E;stroke-width:1.0416666666666667;" x1="18.2292" x2="224.4792" y1="195.5078" y2="195.5078"/><line style="stroke:#5E5E5E;stroke-width:1.0416666666666667;" x1="18.2292" x2="224.4792" y1="203.8411" y2="203.8411"/><!--MD5=[27ae0abbd15ef695be2f7d11889c7714]
class UmlRelationRepeater--><rect codeLine="12" fill="#282828" height="48.055" id="UmlRelationRepeater" rx="8.3333" ry="8.3333" style="stroke:#5E5E5E;stroke-width:1.0416666666666667;" width="172.9167" x="261.9792" y="164.1195"/><rect fill="#1B1B1A" height="31.3883" rx="8.3333" ry="8.3333" style="stroke:#1B1B1A;stroke-width:1.0416666666666667;" width="172.9167" x="261.9792" y="164.1195"/><rect fill="#1B1B1A" height="8.3333" style="stroke:#1B1B1A;stroke-width:1.0416666666666667;" width="172.9167" x="261.9792" y="187.1745"/><rect codeLine="12" fill="none" height="48.055" id="UmlRelationRepeater" rx="8.3333" ry="8.3333" style="stroke:#5E5E5E;stroke-width:1.0416666666666667;" width="172.9167" x="261.9792" y="164.1195"/><ellipse cx="276.5625" cy="179.8136" fill="#3380B9" rx="10.4167" ry="10.4167" style="stroke:#004D86;stroke-width:1.0416666666666667;"/><path d="M278.3346,179.8726 Q278.3346,179.1829 278.0233,178.7923 Q277.712,178.4017 277.1688,178.4017 Q276.6256,178.4017 276.3173,178.7923 Q276.0091,179.1829 276.0091,179.8726 Q276.0091,180.5684 276.3173,180.9591 Q276.6256,181.3497 277.1688,181.3497 Q277.712,181.3497 278.0233,180.9591 Q278.3346,180.5684 278.3346,179.8726 Z M279.4698,182.3751 L278.2735,182.3751 L278.2735,181.8746 Q278.0416,182.1981 277.7273,182.3476 Q277.4129,182.4972 276.9735,182.4972 Q275.9725,182.4972 275.3591,181.7769 Q274.7457,181.0567 274.7457,179.8726 Q274.7457,178.6947 275.356,177.9775 Q275.9664,177.2603 276.9735,177.2603 Q277.4068,177.2603 277.7364,177.4099 Q278.066,177.5594 278.2735,177.8463 L278.2735,177.596 Q278.2735,176.766 277.8188,176.3143 Q277.3641,175.8626 276.5218,175.8626 Q275.2523,175.8626 274.4497,176.9796 Q273.6471,178.0965 273.6471,179.8848 Q273.6471,181.7586 274.5748,182.8664 Q275.5025,183.9742 277.0467,183.9742 Q277.535,183.9742 277.9928,183.8308 Q278.4505,183.6873 278.8717,183.4005 L279.4332,184.4747 Q278.9388,184.8104 278.3559,184.9782 Q277.773,185.1461 277.1077,185.1461 Q274.9715,185.1461 273.702,183.724 Q272.4325,182.3018 272.4325,179.8848 Q272.4325,177.5228 273.5738,176.1037 Q274.7152,174.6847 276.5951,174.6847 Q277.9256,174.6847 278.6977,175.4873 Q279.4698,176.2899 279.4698,177.6754 Z " fill="#000000"/><text fill="#D8BC00" font-family="Open Sans,Avenir,Nunito,Arial,Helvetica,SansSerif" font-size="12.5" font-weight="bold" lengthAdjust="spacing" textLength="135.4167" x="293.2292" y="184.5378">UmlRelationRepeater</text><line style="stroke:#5E5E5E;stroke-width:1.0416666666666667;" x1="263.0208" x2="433.8542" y1="195.5078" y2="195.5078"/><line style="stroke:#5E5E5E;stroke-width:1.0416666666666667;" x1="263.0208" x2="433.8542" y1="203.8411" y2="203.8411"/><!--MD5=[7f1536200974b1826ef14f9693d1f6c5]
link UmlDiagramRepeater to UmlExcludeTypeRepeater--><!--MD5=[5bf800fcdcdfcd945f5a85a293b5fd23]
link UmlDiagramRepeater to UmlMethodGroupRepeater--><!--MD5=[485b9a8d0dc61d5958e0f9d29a5645ab]
link UmlMethodGroupRepeater to UmlRelationRepeater--><!--MD5=[2f5abc40a636c59932f7c8ed09565cf9]
@startuml

    !include lexakai.theme
    
    title "com.telenav.lexakai.annotations.repeaters"
    
    annotation UmlDiagramRepeater
    
    annotation UmlExcludeTypeRepeater
    
    annotation UmlMethodGroupRepeater
    
    annotation UmlRelationRepeater
    
@enduml

@startuml









skinparam backgroundColor #333333






skinparam  {
    defaultFontName   "Open Sans,Avenir,Nunito,Arial,Helvetica,SansSerif"
    defaultFontSize   12
    defaultTextAlignment left
    shadowing false
    RoundCorner 10
    TitleFontSize 18
}

skinparam defaultFontName       "Open Sans,Avenir,Nunito,Arial,Helvetica,SansSerif"
skinparam defaultFontSize       12
skinparam dpi                   100
skinparam shadowing             false
skinparam roundcorner           16
skinparam ParticipantPadding    40
skinparam BoxPadding            40
skinparam Padding               3
skinparam ArrowColor            #545454
skinparam stereotype {
    CBackgroundColor #0066cf
    CBorderColor #0086ef
    ABackgroundColor #C8Ac00
    ABorderColor #D8Bc00
    IBackgroundColor #008400
    IBorderColor #239c23
    EBackgroundColor #cf6300
    EBorderColor #ef8300
    NBackgroundColor #3380b9
    NBorderColor #004d86
}
skinparam title {
	FontColor	                 #c0c0c0
 	BorderColor                  #545454
	FontSize	    	         20
	BorderRoundCorner            16
	BorderThickness 	         1
	BackgroundColor              #48494b
}


skinparam legend {
	BackgroundColor #303030
	BorderColor #404040
	FontColor #a0a0a0
}

	skinparam swimlane {
	BorderColor #5e5e5e
	BorderThickness 2
	TitleBackgroundColor  #6d6d6d-#484848
	TitleFontColor #303030
}

skinparam activity {
		FontColor #C8Ac00
	BorderColor #333333
	BackgroundColor #333333-#333333
	BarColor #00FF00
	StartColor #0060a8
	EndColor #0060a8
	DiamondBackgroundColor #6d6d6d-#3a3a3a
  	DiamondBorderColor #3a3a3a
  	DiamondFontColor #fefefe
}


skinparam participant {
		FontColor #C8Ac00
	BorderColor #333333
	BackgroundColor #333333-#333333
	ParticipantBorderThickness 2
}


skinparam actor {
		FontColor #C8Ac00
	BorderColor #333333
	BackgroundColor #333333-#333333
}


skinparam arrow {
	Thickness 1.5
	Color #545454
	FontColor #a0a0a0
    FontStyle bold
    MessageAlignment center
}



skinparam sequence {
	BorderColor #303030
	TitleFontColor #303030
	BackgroundColor #333333
	StartColor #303030
	EndColor #303030
	BoxBackgroundColor #333333
	BoxBorderColor #484848
	BoxFontColor #484848
	LifeLineBorderColor #484848
	LifeLineBorderThickness 2
	LifeLineBackgroundColor #3a3a3a
	GroupBorderColor #484848
	GroupFontColor #484848
	GroupHeaderFontColor #0060a8
	GroupBackgroundColor #484848
	GroupHeaderBackgroundColor #333333
	DividerBackgroundColor #484848
    DividerBorderColor #484848
    DividerBorderThickness 2
    DividerFontColor #D8Bc00
	ReferenceBackgroundColor #333333
	ReferenceBorderColor #484848
	ReferenceFontColor #fefefe
	ReferenceHeaderBackgroundColor #484848
}


skinparam partition {
	BorderColor #303030
	FontColor #333333
	BackgroundColor #333333
}


skinparam collections {
		FontColor #C8Ac00
	BorderColor #333333
	BackgroundColor #333333-#333333
}


skinparam control {
		FontColor #C8Ac00
	BorderColor #333333
	BackgroundColor #333333-#333333
}


skinparam entity {
		FontColor #C8Ac00
	BorderColor #333333
	BackgroundColor #333333-#333333
}


skinparam boundary {
		FontColor #C8Ac00
	BorderColor #333333
	BackgroundColor #333333-#333333
}


skinparam agent {
	BackgroundColor #ff8000
	BorderColor #ff9933
	FontColor #484848
}


skinparam note {
	BorderThickness 1
	BackgroundColor #1b1b1a
	BorderColor #5e5e5e
	FontSize 11
	FontColor #a0a0a0
}


skinparam artifact {
	BorderThickness 10
	BorderColor #5e5e5e
	BackgroundColor #1b1b1a
	FontColor #D8Bc00
}


skinparam component {
		FontColor #C8Ac00
	BorderColor #333333
	BackgroundColor #333333-#333333
}


skinparam interface {
	BackgroundColor  #008400
	BorderColor  #007F00
	FontColor #484848
}


skinparam storage {
	BackgroundColor #ff8000
  	BorderColor #cc6600
	FontColor #222222
}


skinparam node {
	BackgroundColor #333333
	BorderColor #333333
	FontColor #C8Ac00
}


skinparam cloud {
	BackgroundColor #484848-black
	BorderColor #484848
	FontColor #D8Bc00
}


skinparam database {
		FontColor #C8Ac00
	BorderColor #333333
	BackgroundColor #333333-#333333
	BackgroundColor  #333333
}


skinparam class {
		FontColor #C8Ac00
	BorderColor #333333
	BackgroundColor #333333-#333333
	HeaderBackgroundColor #1b1b1a
    BackgroundColor #282828
    BorderColor #5e5e5e
 	StereotypeFontColor #a0a0a0
    StereotypeFontStyle bold
	BorderThickness 1
	AttributeFontColor #D8Bc00
	AttributeFontSize 11
    FontColor #D8Bc00
    FontStyle bold
}


skinparam object {
		FontColor #C8Ac00
	BorderColor #333333
	BackgroundColor #333333-#333333
	StereotypeFontColor #484848
	BorderThickness 1
	AttributeFontColor #fefefe
	AttributeFontSize 11
}


skinparam usecase {
		FontColor #C8Ac00
	BorderColor #333333
	BackgroundColor #333333-#333333
	BorderThickness 2
	StereotypeFontColor #303030
}


skinparam rectangle {
		FontColor #C8Ac00
	BorderColor #333333
	BackgroundColor #333333-#333333
	BackgroundColor #333333
	BorderThickness 2
	StereotypeFontColor #303030
}


skinparam package {
		FontColor #C8Ac00
	BorderColor #333333
	BackgroundColor #333333-#333333
	BackgroundColor #333333
	BorderThickness 2
}


skinparam folder {
	BackgroundColor #6d6d6d
  	BorderColor #ff8000
	FontColor #ff8000
	BorderThickness 2
}


skinparam frame {
	BackgroundColor #6d6d6d
  	BorderColor #0060a8
	FontColor #0060a8
	BorderThickness 2
}


skinparam state {
		FontColor #C8Ac00
	BorderColor #333333
	BackgroundColor #333333-#333333
	StartColor #0060a8
	EndColor #0060a8
	AttributeFontColor #fefefe
	AttributeFontSize 11
}


skinparam queue {
		FontColor #C8Ac00
	BorderColor #333333
	BackgroundColor #333333-#333333
}


skinparam card {
	BackgroundColor #0060a8
	BorderColor #004d86
	FontColor $INFO_TEXT
}


skinparam file {
	BackgroundColor #6d6d6d-#484848
	BorderColor #0060a8
	FontColor #fefefe
}


skinparam stack {
		FontColor #C8Ac00
	BorderColor #333333
	BackgroundColor #333333-#333333
}

    
    title "com.telenav.lexakai.annotations.repeaters"
    
    annotation UmlDiagramRepeater
    
    annotation UmlExcludeTypeRepeater
    
    annotation UmlMethodGroupRepeater
    
    annotation UmlRelationRepeater
    
@enduml

PlantUML version 1.2021.01(Tue Feb 02 00:55:08 MST 2021)
(GPL source distribution)
Java Runtime: OpenJDK Runtime Environment
JVM: OpenJDK 64-Bit Server VM
Default Encoding: UTF-8
Language: en
Country: US
--></g></svg>