<?xml version="1.0" encoding="UTF-8" standalone="no"?><svg xmlns="http://www.w3.org/2000/svg" xmlns:xlink="http://www.w3.org/1999/xlink" contentScriptType="application/ecmascript" contentStyleType="text/css" height="1065.625px" preserveAspectRatio="none" style="width:2175px;height:1065px;background:#333333;" version="1.1" viewBox="0 0 2175 1065" width="2175px" zoomAndPan="magnify"><defs/><g><rect fill="#48494B" height="41.2028" rx="8.3333" ry="8.3333" style="stroke:#545454;stroke-width:1.0416666666666667;" width="291.6667" x="934.375" y="2.0833"/><text fill="#C0C0C0" font-family="Open Sans,Avenir,Nunito,Arial,Helvetica,SansSerif" font-size="20.8333" lengthAdjust="spacing" textLength="268.75" x="945.8333" y="30.5583">com.telenav.lexakai.library</text><rect codeLine="7" fill="#282828" height="356.7281" id="Annotations" rx="8.3333" ry="8.3333" style="stroke:#5E5E5E;stroke-width:1.0416666666666667;" width="671.875" x="7.2917" y="53.7028"/><rect fill="#1B1B1A" height="31.3883" rx="8.3333" ry="8.3333" style="stroke:#1B1B1A;stroke-width:1.0416666666666667;" width="671.875" x="7.2917" y="53.7028"/><rect fill="#1B1B1A" height="8.3333" style="stroke:#1B1B1A;stroke-width:1.0416666666666667;" width="671.875" x="7.2917" y="76.7578"/><rect codeLine="7" fill="none" height="356.7281" id="Annotations" rx="8.3333" ry="8.3333" style="stroke:#5E5E5E;stroke-width:1.0416666666666667;" width="671.875" x="7.2917" y="53.7028"/><ellipse cx="295.8333" cy="69.397" fill="#0066CF" rx="10.4167" ry="10.4167" style="stroke:#0086EF;stroke-width:1.0416666666666667;"/><path d="M297.7437,73.822 Q297.3165,74.0417 296.8465,74.1516 Q296.3765,74.2615 295.8577,74.2615 Q294.0145,74.2615 293.044,73.0469 Q292.0736,71.8323 292.0736,69.5374 Q292.0736,67.2363 293.044,66.0217 Q294.0145,64.8071 295.8577,64.8071 Q296.3765,64.8071 296.8526,64.917 Q297.3287,65.0269 297.7437,65.2466 L297.7437,67.2485 Q297.2799,66.8213 296.8435,66.6229 Q296.4071,66.4246 295.9432,66.4246 Q294.9544,66.4246 294.4509,67.2089 Q293.9473,67.9932 293.9473,69.5374 Q293.9473,71.0754 294.4509,71.8597 Q294.9544,72.644 295.9432,72.644 Q296.4071,72.644 296.8435,72.4457 Q297.2799,72.2473 297.7437,71.8201 Z " fill="#000000"/><text fill="#D8BC00" font-family="Open Sans,Avenir,Nunito,Arial,Helvetica,SansSerif" font-size="12.5" font-weight="bold" lengthAdjust="spacing" textLength="80.2083" x="318.75" y="74.1211">Annotations</text><line style="stroke:#5E5E5E;stroke-width:1.5625;" x1="8.3333" x2="678.125" y1="85.0911" y2="85.0911"/><line style="stroke:#5E5E5E;stroke-width:1.0416666666666667;" x1="8.3333" x2="678.125" y1="93.4245" y2="93.4245"/><ellipse cx="18.75" cy="104.8828" fill="#84BE84" rx="3.125" ry="3.125" style="stroke:#038048;stroke-width:1.0416666666666667;"/><text fill="#D8BC00" font-family="Open Sans,Avenir,Nunito,Arial,Helvetica,SansSerif" font-size="11.4583" lengthAdjust="spacing" textLength="639.5833" x="30.2083" y="111.794">Set&lt;AnnotationExpr&gt; annotations(NodeWithAnnotations&lt;?&gt; type, Class&lt;? extends Annotation&gt; annotationType)</text><ellipse cx="18.75" cy="124.6277" fill="#84BE84" rx="3.125" ry="3.125" style="stroke:#038048;stroke-width:1.0416666666666667;"/><text fill="#D8BC00" font-family="Open Sans,Avenir,Nunito,Arial,Helvetica,SansSerif" font-size="11.4583" lengthAdjust="spacing" textLength="431.25" x="30.2083" y="131.5389">boolean booleanValue(AnnotationExpr, String member, boolean defaultValue)</text><ellipse cx="18.75" cy="144.3726" fill="#84BE84" rx="3.125" ry="3.125" style="stroke:#038048;stroke-width:1.0416666666666667;"/><text fill="#D8BC00" font-family="Open Sans,Avenir,Nunito,Arial,Helvetica,SansSerif" font-size="11.4583" lengthAdjust="spacing" textLength="322.9167" x="30.2083" y="151.2838">Set&lt;String&gt; classNames(AnnotationExpr, String member)</text><ellipse cx="18.75" cy="164.1174" fill="#84BE84" rx="3.125" ry="3.125" style="stroke:#038048;stroke-width:1.0416666666666667;"/><text fill="#D8BC00" font-family="Open Sans,Avenir,Nunito,Arial,Helvetica,SansSerif" font-size="11.4583" lengthAdjust="spacing" textLength="234.375" x="30.2083" y="171.0286">Set&lt;String&gt; classNames(AnnotationExpr)</text><ellipse cx="18.75" cy="183.8623" fill="#84BE84" rx="3.125" ry="3.125" style="stroke:#038048;stroke-width:1.0416666666666667;"/><text fill="#D8BC00" font-family="Open Sans,Avenir,Nunito,Arial,Helvetica,SansSerif" font-size="11.4583" lengthAdjust="spacing" textLength="313.5417" x="30.2083" y="190.7735">Expression expression(AnnotationExpr, String member)</text><ellipse cx="18.75" cy="203.6072" fill="#84BE84" rx="3.125" ry="3.125" style="stroke:#038048;stroke-width:1.0416666666666667;"/><text fill="#D8BC00" font-family="Open Sans,Avenir,Nunito,Arial,Helvetica,SansSerif" font-size="11.4583" lengthAdjust="spacing" textLength="285.4167" x="30.2083" y="210.5184">String stringValue(AnnotationExpr, String member)</text><ellipse cx="18.75" cy="223.3521" fill="#84BE84" rx="3.125" ry="3.125" style="stroke:#038048;stroke-width:1.0416666666666667;"/><text fill="#D8BC00" font-family="Open Sans,Avenir,Nunito,Arial,Helvetica,SansSerif" font-size="11.4583" lengthAdjust="spacing" textLength="196.875" x="30.2083" y="230.2633">String stringValue(AnnotationExpr)</text><ellipse cx="18.75" cy="267.0085" fill="#84BE84" rx="3.125" ry="3.125" style="stroke:#038048;stroke-width:1.0416666666666667;"/><text fill="#D8BC00" font-family="Open Sans,Avenir,Nunito,Arial,Helvetica,SansSerif" font-size="11.4583" lengthAdjust="spacing" textLength="576.0417" x="30.2083" y="273.9197">boolean hasAnnotation(NodeWithAnnotations&lt;?&gt; type, Class&lt;? extends Annotation&gt; annotationType)</text><ellipse cx="18.75" cy="286.7533" fill="#84BE84" rx="3.125" ry="3.125" style="stroke:#038048;stroke-width:1.0416666666666667;"/><text fill="#D8BC00" font-family="Open Sans,Avenir,Nunito,Arial,Helvetica,SansSerif" font-size="11.4583" lengthAdjust="spacing" textLength="280.2083" x="30.2083" y="293.6646">boolean shouldExcludeType(TypeDeclaration&lt;?&gt;)</text><line style="stroke:#5E5E5E;stroke-width:1.0416666666666667;" x1="8.3333" x2="316.6667" y1="249.8444" y2="249.8444"/><text fill="#D8BC00" font-family="Open Sans,Avenir,Nunito,Arial,Helvetica,SansSerif" font-size="11.4583" lengthAdjust="spacing" textLength="46.875" x="319.7917" y="253.654">(checks)</text><line style="stroke:#5E5E5E;stroke-width:1.0416666666666667;" x1="369.7917" x2="678.125" y1="249.8444" y2="249.8444"/><ellipse cx="18.75" cy="330.4097" fill="#84BE84" rx="3.125" ry="3.125" style="stroke:#038048;stroke-width:1.0416666666666667;"/><text fill="#D8BC00" font-family="Open Sans,Avenir,Nunito,Arial,Helvetica,SansSerif" font-size="11.4583" lengthAdjust="spacing" textLength="327.0833" x="30.2083" y="337.321">Set&lt;String&gt; stringValues(AnnotationExpr, String member)</text><ellipse cx="18.75" cy="350.1546" fill="#84BE84" rx="3.125" ry="3.125" style="stroke:#038048;stroke-width:1.0416666666666667;"/><text fill="#D8BC00" font-family="Open Sans,Avenir,Nunito,Arial,Helvetica,SansSerif" font-size="11.4583" lengthAdjust="spacing" textLength="311.4583" x="30.2083" y="357.0658">Expression value(AnnotationExpr, String memberName)</text><line style="stroke:#5E5E5E;stroke-width:1.0416666666666667;" x1="8.3333" x2="308.8542" y1="313.2456" y2="313.2456"/><text fill="#D8BC00" font-family="Open Sans,Avenir,Nunito,Arial,Helvetica,SansSerif" font-size="11.4583" lengthAdjust="spacing" textLength="62.5" x="311.9792" y="317.0553">(collection)</text><line style="stroke:#5E5E5E;stroke-width:1.0416666666666667;" x1="377.6042" x2="678.125" y1="313.2456" y2="313.2456"/><ellipse cx="18.75" cy="393.811" fill="#84BE84" rx="3.125" ry="3.125" style="stroke:#038048;stroke-width:1.0416666666666667;"/><text fill="#D8BC00" font-family="Open Sans,Avenir,Nunito,Arial,Helvetica,SansSerif" font-size="11.4583" lengthAdjust="spacing" textLength="281.25" x="30.2083" y="400.7222">String className(AnnotationExpr, String member)</text><line style="stroke:#5E5E5E;stroke-width:1.0416666666666667;" x1="8.3333" x2="315.1042" y1="376.6469" y2="376.6469"/><text fill="#D8BC00" font-family="Open Sans,Avenir,Nunito,Arial,Helvetica,SansSerif" font-size="11.4583" lengthAdjust="spacing" textLength="50" x="318.2292" y="380.4565">(naming)</text><line style="stroke:#5E5E5E;stroke-width:1.0416666666666667;" x1="371.3542" x2="678.125" y1="376.6469" y2="376.6469"/><rect codeLine="27" fill="#282828" height="111.4563" id="Associations" rx="8.3333" ry="8.3333" style="stroke:#5E5E5E;stroke-width:1.0416666666666667;" width="495.8333" x="716.1458" y="176.0986"/><rect fill="#1B1B1A" height="31.3883" rx="8.3333" ry="8.3333" style="stroke:#1B1B1A;stroke-width:1.0416666666666667;" width="495.8333" x="716.1458" y="176.0986"/><rect fill="#1B1B1A" height="8.3333" style="stroke:#1B1B1A;stroke-width:1.0416666666666667;" width="495.8333" x="716.1458" y="199.1536"/><rect codeLine="27" fill="none" height="111.4563" id="Associations" rx="8.3333" ry="8.3333" style="stroke:#5E5E5E;stroke-width:1.0416666666666667;" width="495.8333" x="716.1458" y="176.0986"/><ellipse cx="915.1042" cy="191.7928" fill="#0066CF" rx="10.4167" ry="10.4167" style="stroke:#0086EF;stroke-width:1.0416666666666667;"/><path d="M917.0146,196.2179 Q916.5873,196.4376 916.1174,196.5474 Q915.6474,196.6573 915.1286,196.6573 Q913.2853,196.6573 912.3149,195.4427 Q911.3444,194.2281 911.3444,191.9332 Q911.3444,189.6322 912.3149,188.4176 Q913.2853,187.203 915.1286,187.203 Q915.6474,187.203 916.1235,187.3128 Q916.5995,187.4227 917.0146,187.6424 L917.0146,189.6444 Q916.5507,189.2171 916.1143,189.0188 Q915.6779,188.8204 915.214,188.8204 Q914.2253,188.8204 913.7217,189.6047 Q913.2182,190.389 913.2182,191.9332 Q913.2182,193.4713 913.7217,194.2556 Q914.2253,195.0399 915.214,195.0399 Q915.6779,195.0399 916.1143,194.8415 Q916.5507,194.6431 917.0146,194.2159 Z " fill="#000000"/><text fill="#D8BC00" font-family="Open Sans,Avenir,Nunito,Arial,Helvetica,SansSerif" font-size="12.5" font-weight="bold" lengthAdjust="spacing" textLength="83.3333" x="938.0208" y="196.5169">Associations</text><line style="stroke:#5E5E5E;stroke-width:1.5625;" x1="717.1875" x2="1210.9375" y1="207.487" y2="207.487"/><line style="stroke:#5E5E5E;stroke-width:1.0416666666666667;" x1="717.1875" x2="1210.9375" y1="215.8203" y2="215.8203"/><ellipse cx="727.6042" cy="227.2786" fill="#84BE84" rx="3.125" ry="3.125" style="stroke:#038048;stroke-width:1.0416666666666667;"/><text fill="#D8BC00" font-family="Open Sans,Avenir,Nunito,Arial,Helvetica,SansSerif" font-size="11.4583" lengthAdjust="spacing" textLength="164.5833" x="739.0625" y="234.1899">String cardinalityGuess(Type)</text><ellipse cx="727.6042" cy="270.9351" fill="#84BE84" rx="3.125" ry="3.125" style="stroke:#038048;stroke-width:1.0416666666666667;"/><text fill="#D8BC00" font-family="Open Sans,Avenir,Nunito,Arial,Helvetica,SansSerif" font-size="11.4583" lengthAdjust="spacing" textLength="463.5417" x="739.0625" y="277.8463">List&lt;UmlAssociation&gt; explicitRelations(TypeDeclaration&lt;?&gt;, String diagramName)</text><line style="stroke:#5E5E5E;stroke-width:1.0416666666666667;" x1="717.1875" x2="929.6875" y1="253.771" y2="253.771"/><text fill="#D8BC00" font-family="Open Sans,Avenir,Nunito,Arial,Helvetica,SansSerif" font-size="11.4583" lengthAdjust="spacing" textLength="62.5" x="932.8125" y="257.5806">(collection)</text><line style="stroke:#5E5E5E;stroke-width:1.0416666666666667;" x1="998.4375" x2="1210.9375" y1="253.771" y2="253.771"/><rect codeLine="35" fill="#282828" height="87.5448" id="Diagrams" rx="8.3333" ry="8.3333" style="stroke:#5E5E5E;stroke-width:1.0416666666666667;" width="475" x="1248.4375" y="188.0778"/><rect fill="#1B1B1A" height="31.3883" rx="8.3333" ry="8.3333" style="stroke:#1B1B1A;stroke-width:1.0416666666666667;" width="475" x="1248.4375" y="188.0778"/><rect fill="#1B1B1A" height="8.3333" style="stroke:#1B1B1A;stroke-width:1.0416666666666667;" width="475" x="1248.4375" y="211.1328"/><rect codeLine="35" fill="none" height="87.5448" id="Diagrams" rx="8.3333" ry="8.3333" style="stroke:#5E5E5E;stroke-width:1.0416666666666667;" width="475" x="1248.4375" y="188.0778"/><ellipse cx="1447.3958" cy="203.772" fill="#008400" rx="10.4167" ry="10.4167" style="stroke:#239C23;stroke-width:1.0416666666666667;"/><path d="M1444.7998,200.9338 L1444.7998,199.3469 L1450.2258,199.3469 L1450.2258,200.9338 L1448.4131,200.9338 L1448.4131,206.8726 L1450.2258,206.8726 L1450.2258,208.4595 L1444.7998,208.4595 L1444.7998,206.8726 L1446.6125,206.8726 L1446.6125,200.9338 Z " fill="#000000"/><text fill="#D8BC00" font-family="Open Sans,Avenir,Nunito,Arial,Helvetica,SansSerif" font-size="12.5" font-style="italic" font-weight="bold" lengthAdjust="spacing" textLength="62.5" x="1470.3125" y="208.4961">Diagrams</text><line style="stroke:#5E5E5E;stroke-width:1.5625;" x1="1249.4792" x2="1722.3958" y1="219.4661" y2="219.4661"/><line style="stroke:#5E5E5E;stroke-width:1.0416666666666667;" x1="1249.4792" x2="1722.3958" y1="227.7995" y2="227.7995"/><ellipse cx="1259.8958" cy="239.2578" fill="#84BE84" rx="3.125" ry="3.125" style="stroke:#038048;stroke-width:1.0416666666666667;"/><text fill="#D8BC00" font-family="Open Sans,Avenir,Nunito,Arial,Helvetica,SansSerif" font-size="11.4583" lengthAdjust="spacing" textLength="442.7083" x="1271.3542" y="246.169">AnnotationExpr diagramAnnotation(TypeDeclaration&lt;?&gt;, String diagramName)</text><ellipse cx="1259.8958" cy="259.0027" fill="#84BE84" rx="3.125" ry="3.125" style="stroke:#038048;stroke-width:1.0416666666666667;"/><text fill="#D8BC00" font-family="Open Sans,Avenir,Nunito,Arial,Helvetica,SansSerif" font-size="11.4583" lengthAdjust="spacing" textLength="433.3333" x="1271.3542" y="265.9139">Set&lt;String&gt; diagrams(TypeDeclaration&lt;?&gt;, boolean includePackageDiagram)</text><rect codeLine="42" fill="#282828" height="111.4563" id="Fields" rx="8.3333" ry="8.3333" style="stroke:#5E5E5E;stroke-width:1.0416666666666667;" width="407.2917" x="1760.4167" y="176.0986"/><rect fill="#1B1B1A" height="31.3883" rx="8.3333" ry="8.3333" style="stroke:#1B1B1A;stroke-width:1.0416666666666667;" width="407.2917" x="1760.4167" y="176.0986"/><rect fill="#1B1B1A" height="8.3333" style="stroke:#1B1B1A;stroke-width:1.0416666666666667;" width="407.2917" x="1760.4167" y="199.1536"/><rect codeLine="42" fill="none" height="111.4563" id="Fields" rx="8.3333" ry="8.3333" style="stroke:#5E5E5E;stroke-width:1.0416666666666667;" width="407.2917" x="1760.4167" y="176.0986"/><ellipse cx="1937.5" cy="191.7928" fill="#0066CF" rx="10.4167" ry="10.4167" style="stroke:#0086EF;stroke-width:1.0416666666666667;"/><path d="M1939.4104,196.2179 Q1938.9832,196.4376 1938.5132,196.5474 Q1938.0432,196.6573 1937.5244,196.6573 Q1935.6812,196.6573 1934.7107,195.4427 Q1933.7402,194.2281 1933.7402,191.9332 Q1933.7402,189.6322 1934.7107,188.4176 Q1935.6812,187.203 1937.5244,187.203 Q1938.0432,187.203 1938.5193,187.3128 Q1938.9954,187.4227 1939.4104,187.6424 L1939.4104,189.6444 Q1938.9465,189.2171 1938.5101,189.0188 Q1938.0737,188.8204 1937.6099,188.8204 Q1936.6211,188.8204 1936.1176,189.6047 Q1935.614,190.389 1935.614,191.9332 Q1935.614,193.4713 1936.1176,194.2556 Q1936.6211,195.0399 1937.6099,195.0399 Q1938.0737,195.0399 1938.5101,194.8415 Q1938.9465,194.6431 1939.4104,194.2159 Z " fill="#000000"/><text fill="#D8BC00" font-family="Open Sans,Avenir,Nunito,Arial,Helvetica,SansSerif" font-size="12.5" font-weight="bold" lengthAdjust="spacing" textLength="38.5417" x="1960.4167" y="196.5169">Fields</text><line style="stroke:#5E5E5E;stroke-width:1.5625;" x1="1761.4583" x2="2166.6667" y1="207.487" y2="207.487"/><line style="stroke:#5E5E5E;stroke-width:1.0416666666666667;" x1="1761.4583" x2="2166.6667" y1="215.8203" y2="215.8203"/><ellipse cx="1771.875" cy="227.2786" fill="#84BE84" rx="3.125" ry="3.125" style="stroke:#038048;stroke-width:1.0416666666666667;"/><text fill="#D8BC00" font-family="Open Sans,Avenir,Nunito,Arial,Helvetica,SansSerif" font-size="11.4583" lengthAdjust="spacing" textLength="375" x="1783.3333" y="234.1899">UmlAssociation.AssociationType associationType(FieldDeclaration)</text><ellipse cx="1771.875" cy="270.9351" fill="#84BE84" rx="3.125" ry="3.125" style="stroke:#038048;stroke-width:1.0416666666666667;"/><text fill="#D8BC00" font-family="Open Sans,Avenir,Nunito,Arial,Helvetica,SansSerif" font-size="11.4583" lengthAdjust="spacing" textLength="206.25" x="1783.3333" y="277.8463">boolean isExcluded(FieldDeclaration)</text><line style="stroke:#5E5E5E;stroke-width:1.0416666666666667;" x1="1761.4583" x2="1934.8958" y1="253.771" y2="253.771"/><text fill="#D8BC00" font-family="Open Sans,Avenir,Nunito,Arial,Helvetica,SansSerif" font-size="11.4583" lengthAdjust="spacing" textLength="52.0833" x="1938.0208" y="257.5806">(filtering)</text><line style="stroke:#5E5E5E;stroke-width:1.0416666666666667;" x1="1993.2292" x2="2166.6667" y1="253.771" y2="253.771"/><rect codeLine="50" fill="#282828" height="87.5448" id="Members" rx="8.3333" ry="8.3333" style="stroke:#5E5E5E;stroke-width:1.0416666666666667;" width="604.1667" x="41.1458" y="553.7028"/><rect fill="#1B1B1A" height="31.3883" rx="8.3333" ry="8.3333" style="stroke:#1B1B1A;stroke-width:1.0416666666666667;" width="604.1667" x="41.1458" y="553.7028"/><rect fill="#1B1B1A" height="8.3333" style="stroke:#1B1B1A;stroke-width:1.0416666666666667;" width="604.1667" x="41.1458" y="576.7578"/><rect codeLine="50" fill="none" height="87.5448" id="Members" rx="8.3333" ry="8.3333" style="stroke:#5E5E5E;stroke-width:1.0416666666666667;" width="604.1667" x="41.1458" y="553.7028"/><ellipse cx="306.25" cy="569.397" fill="#0066CF" rx="10.4167" ry="10.4167" style="stroke:#0086EF;stroke-width:1.0416666666666667;"/><path d="M308.1604,573.822 Q307.7332,574.0417 307.2632,574.1516 Q306.7932,574.2615 306.2744,574.2615 Q304.4312,574.2615 303.4607,573.0469 Q302.4902,571.8323 302.4902,569.5374 Q302.4902,567.2363 303.4607,566.0217 Q304.4312,564.8071 306.2744,564.8071 Q306.7932,564.8071 307.2693,564.917 Q307.7454,565.0269 308.1604,565.2466 L308.1604,567.2485 Q307.6965,566.8213 307.2601,566.6229 Q306.8237,566.4246 306.3599,566.4246 Q305.3711,566.4246 304.8676,567.2089 Q304.364,567.9932 304.364,569.5374 Q304.364,571.0754 304.8676,571.8597 Q305.3711,572.644 306.3599,572.644 Q306.8237,572.644 307.2601,572.4457 Q307.6965,572.2473 308.1604,571.8201 Z " fill="#000000"/><text fill="#D8BC00" font-family="Open Sans,Avenir,Nunito,Arial,Helvetica,SansSerif" font-size="12.5" font-weight="bold" lengthAdjust="spacing" textLength="59.375" x="329.1667" y="574.1211">Members</text><line style="stroke:#5E5E5E;stroke-width:1.5625;" x1="42.1875" x2="644.2708" y1="585.0911" y2="585.0911"/><line style="stroke:#5E5E5E;stroke-width:1.0416666666666667;" x1="42.1875" x2="644.2708" y1="593.4245" y2="593.4245"/><ellipse cx="52.6042" cy="604.8828" fill="#84BE84" rx="3.125" ry="3.125" style="stroke:#038048;stroke-width:1.0416666666666667;"/><text fill="#D8BC00" font-family="Open Sans,Avenir,Nunito,Arial,Helvetica,SansSerif" font-size="11.4583" lengthAdjust="spacing" textLength="397.9167" x="64.0625" y="611.794">String associationString(NodeWithAnnotations&lt;?&gt; member, String key)</text><ellipse cx="52.6042" cy="624.6277" fill="#84BE84" rx="3.125" ry="3.125" style="stroke:#038048;stroke-width:1.0416666666666667;"/><text fill="#D8BC00" font-family="Open Sans,Avenir,Nunito,Arial,Helvetica,SansSerif" font-size="11.4583" lengthAdjust="spacing" textLength="571.875" x="64.0625" y="631.5389">String associationString(NodeWithAnnotations&lt;?&gt; member, Class&lt;? extends Annotation&gt;, String key)</text><rect codeLine="57" fill="#282828" height="150.946" id="Methods" rx="8.3333" ry="8.3333" style="stroke:#5E5E5E;stroke-width:1.0416666666666667;" width="422.9167" x="681.7708" y="521.932"/><rect fill="#1B1B1A" height="31.3883" rx="8.3333" ry="8.3333" style="stroke:#1B1B1A;stroke-width:1.0416666666666667;" width="422.9167" x="681.7708" y="521.932"/><rect fill="#1B1B1A" height="8.3333" style="stroke:#1B1B1A;stroke-width:1.0416666666666667;" width="422.9167" x="681.7708" y="544.987"/><rect codeLine="57" fill="none" height="150.946" id="Methods" rx="8.3333" ry="8.3333" style="stroke:#5E5E5E;stroke-width:1.0416666666666667;" width="422.9167" x="681.7708" y="521.932"/><ellipse cx="857.8125" cy="537.6261" fill="#0066CF" rx="10.4167" ry="10.4167" style="stroke:#0086EF;stroke-width:1.0416666666666667;"/><path d="M859.7229,542.0512 Q859.2957,542.2709 858.8257,542.3808 Q858.3557,542.4906 857.8369,542.4906 Q855.9937,542.4906 855.0232,541.276 Q854.0527,540.0614 854.0527,537.7665 Q854.0527,535.4655 855.0232,534.2509 Q855.9937,533.0363 857.8369,533.0363 Q858.3557,533.0363 858.8318,533.1462 Q859.3079,533.256 859.7229,533.4757 L859.7229,535.4777 Q859.259,535.0505 858.8226,534.8521 Q858.3862,534.6537 857.9224,534.6537 Q856.9336,534.6537 856.4301,535.438 Q855.9265,536.2223 855.9265,537.7665 Q855.9265,539.3046 856.4301,540.0889 Q856.9336,540.8732 857.9224,540.8732 Q858.3862,540.8732 858.8226,540.6748 Q859.259,540.4765 859.7229,540.0492 Z " fill="#000000"/><text fill="#D8BC00" font-family="Open Sans,Avenir,Nunito,Arial,Helvetica,SansSerif" font-size="12.5" font-weight="bold" lengthAdjust="spacing" textLength="56.25" x="880.7292" y="542.3503">Methods</text><line style="stroke:#5E5E5E;stroke-width:1.5625;" x1="682.8125" x2="1103.6458" y1="553.3203" y2="553.3203"/><line style="stroke:#5E5E5E;stroke-width:1.0416666666666667;" x1="682.8125" x2="1103.6458" y1="561.6536" y2="561.6536"/><ellipse cx="693.2292" cy="573.112" fill="#84BE84" rx="3.125" ry="3.125" style="stroke:#038048;stroke-width:1.0416666666666667;"/><text fill="#D8BC00" font-family="Open Sans,Avenir,Nunito,Arial,Helvetica,SansSerif" font-size="11.4583" lengthAdjust="spacing" textLength="390.625" x="704.6875" y="580.0232">UmlAssociation.AssociationType associationType(MethodDeclaration)</text><ellipse cx="693.2292" cy="592.8569" fill="#84BE84" rx="3.125" ry="3.125" style="stroke:#038048;stroke-width:1.0416666666666667;"/><text fill="#D8BC00" font-family="Open Sans,Avenir,Nunito,Arial,Helvetica,SansSerif" font-size="11.4583" lengthAdjust="spacing" textLength="267.7083" x="704.6875" y="599.7681">Set&lt;String&gt; explicitGroups(MethodDeclaration)</text><ellipse cx="693.2292" cy="636.5133" fill="#84BE84" rx="3.125" ry="3.125" style="stroke:#038048;stroke-width:1.0416666666666667;"/><text fill="#D8BC00" font-family="Open Sans,Avenir,Nunito,Arial,Helvetica,SansSerif" font-size="11.4583" lengthAdjust="spacing" textLength="248.9583" x="704.6875" y="643.4245">boolean isExcluded(ConstructorDeclaration)</text><ellipse cx="693.2292" cy="656.2581" fill="#84BE84" rx="3.125" ry="3.125" style="stroke:#038048;stroke-width:1.0416666666666667;"/><text fill="#D8BC00" font-family="Open Sans,Avenir,Nunito,Arial,Helvetica,SansSerif" font-size="11.4583" lengthAdjust="spacing" textLength="221.875" x="704.6875" y="663.1694">boolean isExcluded(MethodDeclaration)</text><line style="stroke:#5E5E5E;stroke-width:1.0416666666666667;" x1="682.8125" x2="864.0625" y1="619.3492" y2="619.3492"/><text fill="#D8BC00" font-family="Open Sans,Avenir,Nunito,Arial,Helvetica,SansSerif" font-size="11.4583" lengthAdjust="spacing" textLength="52.0833" x="867.1875" y="623.1588">(filtering)</text><line style="stroke:#5E5E5E;stroke-width:1.0416666666666667;" x1="922.3958" x2="1103.6458" y1="619.3492" y2="619.3492"/><rect codeLine="67" fill="#282828" height="249.6704" id="Names" rx="8.3333" ry="8.3333" style="stroke:#5E5E5E;stroke-width:1.0416666666666667;" width="402.0833" x="1141.1458" y="472.4528"/><rect fill="#1B1B1A" height="31.3883" rx="8.3333" ry="8.3333" style="stroke:#1B1B1A;stroke-width:1.0416666666666667;" width="402.0833" x="1141.1458" y="472.4528"/><rect fill="#1B1B1A" height="8.3333" style="stroke:#1B1B1A;stroke-width:1.0416666666666667;" width="402.0833" x="1141.1458" y="495.5078"/><rect codeLine="67" fill="none" height="249.6704" id="Names" rx="8.3333" ry="8.3333" style="stroke:#5E5E5E;stroke-width:1.0416666666666667;" width="402.0833" x="1141.1458" y="472.4528"/><ellipse cx="1313.0208" cy="488.147" fill="#0066CF" rx="10.4167" ry="10.4167" style="stroke:#0086EF;stroke-width:1.0416666666666667;"/><path d="M1314.9312,492.572 Q1314.504,492.7917 1314.034,492.9016 Q1313.564,493.0115 1313.0452,493.0115 Q1311.202,493.0115 1310.2315,491.7969 Q1309.2611,490.5823 1309.2611,488.2874 Q1309.2611,485.9863 1310.2315,484.7717 Q1311.202,483.5571 1313.0452,483.5571 Q1313.564,483.5571 1314.0401,483.667 Q1314.5162,483.7769 1314.9312,483.9966 L1314.9312,485.9985 Q1314.4674,485.5713 1314.031,485.3729 Q1313.5946,485.1746 1313.1307,485.1746 Q1312.1419,485.1746 1311.6384,485.9589 Q1311.1348,486.7432 1311.1348,488.2874 Q1311.1348,489.8254 1311.6384,490.6097 Q1312.1419,491.394 1313.1307,491.394 Q1313.5946,491.394 1314.031,491.1957 Q1314.4674,490.9973 1314.9312,490.5701 Z " fill="#000000"/><text fill="#D8BC00" font-family="Open Sans,Avenir,Nunito,Arial,Helvetica,SansSerif" font-size="12.5" font-weight="bold" lengthAdjust="spacing" textLength="43.75" x="1335.9375" y="492.8711">Names</text><line style="stroke:#5E5E5E;stroke-width:1.5625;" x1="1142.1875" x2="1542.1875" y1="503.8411" y2="503.8411"/><line style="stroke:#5E5E5E;stroke-width:1.0416666666666667;" x1="1142.1875" x2="1542.1875" y1="512.1745" y2="512.1745"/><ellipse cx="1152.6042" cy="523.6328" fill="#84BE84" rx="3.125" ry="3.125" style="stroke:#038048;stroke-width:1.0416666666666667;"/><text fill="#D8BC00" font-family="Open Sans,Avenir,Nunito,Arial,Helvetica,SansSerif" font-size="11.4583" lengthAdjust="spacing" textLength="245.8333" x="1164.0625" y="530.544">String typeParameters(TypeDeclaration&lt;?&gt;)</text><ellipse cx="1152.6042" cy="543.3777" fill="#84BE84" rx="3.125" ry="3.125" style="stroke:#038048;stroke-width:1.0416666666666667;"/><text fill="#D8BC00" font-family="Open Sans,Avenir,Nunito,Arial,Helvetica,SansSerif" font-size="11.4583" lengthAdjust="spacing" textLength="303.125" x="1164.0625" y="550.2889">String withoutQualification(String qualifiedClassName)</text><ellipse cx="1152.6042" cy="563.1226" fill="#84BE84" rx="3.125" ry="3.125" style="stroke:#038048;stroke-width:1.0416666666666667;"/><text fill="#D8BC00" font-family="Open Sans,Avenir,Nunito,Arial,Helvetica,SansSerif" font-size="11.4583" lengthAdjust="spacing" textLength="267.7083" x="1164.0625" y="570.0338">String withoutTypeParameters(String typeName)</text><ellipse cx="1152.6042" cy="606.779" fill="#84BE84" rx="3.125" ry="3.125" style="stroke:#038048;stroke-width:1.0416666666666667;"/><text fill="#D8BC00" font-family="Open Sans,Avenir,Nunito,Arial,Helvetica,SansSerif" font-size="11.4583" lengthAdjust="spacing" textLength="369.7917" x="1164.0625" y="613.6902">String name(ClassExpr expression, Qualification, TypeParameters)</text><ellipse cx="1152.6042" cy="626.5238" fill="#84BE84" rx="3.125" ry="3.125" style="stroke:#038048;stroke-width:1.0416666666666667;"/><text fill="#D8BC00" font-family="Open Sans,Avenir,Nunito,Arial,Helvetica,SansSerif" font-size="11.4583" lengthAdjust="spacing" textLength="362.5" x="1164.0625" y="633.4351">String name(TypeDeclaration&lt;?&gt;, Qualification, TypeParameters)</text><ellipse cx="1152.6042" cy="646.2687" fill="#84BE84" rx="3.125" ry="3.125" style="stroke:#038048;stroke-width:1.0416666666666667;"/><text fill="#D8BC00" font-family="Open Sans,Avenir,Nunito,Arial,Helvetica,SansSerif" font-size="11.4583" lengthAdjust="spacing" textLength="275" x="1164.0625" y="653.1799">String name(Type, Qualification, TypeParameters)</text><ellipse cx="1152.6042" cy="666.0136" fill="#84BE84" rx="3.125" ry="3.125" style="stroke:#038048;stroke-width:1.0416666666666667;"/><text fill="#D8BC00" font-family="Open Sans,Avenir,Nunito,Arial,Helvetica,SansSerif" font-size="11.4583" lengthAdjust="spacing" textLength="237.5" x="1164.0625" y="672.9248">String packageName(String qualifiedName)</text><ellipse cx="1152.6042" cy="685.7585" fill="#84BE84" rx="3.125" ry="3.125" style="stroke:#038048;stroke-width:1.0416666666666667;"/><text fill="#D8BC00" font-family="Open Sans,Avenir,Nunito,Arial,Helvetica,SansSerif" font-size="11.4583" lengthAdjust="spacing" textLength="257.2917" x="1164.0625" y="692.6697">String simpleName(NodeWithSimpleName&lt;?&gt;)</text><ellipse cx="1152.6042" cy="705.5033" fill="#84BE84" rx="3.125" ry="3.125" style="stroke:#038048;stroke-width:1.0416666666666667;"/><text fill="#D8BC00" font-family="Open Sans,Avenir,Nunito,Arial,Helvetica,SansSerif" font-size="11.4583" lengthAdjust="spacing" textLength="170.8333" x="1164.0625" y="712.4146">String simpleName(Type node)</text><line style="stroke:#5E5E5E;stroke-width:1.0416666666666667;" x1="1142.1875" x2="1314.0625" y1="589.6149" y2="589.6149"/><text fill="#D8BC00" font-family="Open Sans,Avenir,Nunito,Arial,Helvetica,SansSerif" font-size="11.4583" lengthAdjust="spacing" textLength="50" x="1317.1875" y="593.4245">(naming)</text><line style="stroke:#5E5E5E;stroke-width:1.0416666666666667;" x1="1370.3125" x2="1542.1875" y1="589.6149" y2="589.6149"/><rect codeLine="82" fill="#282828" height="87.5448" id="Names.Qualification" rx="8.3333" ry="8.3333" style="stroke:#5E5E5E;stroke-width:1.0416666666666667;" width="167.7083" x="1580.2083" y="553.7028"/><rect fill="#1B1B1A" height="31.3883" rx="8.3333" ry="8.3333" style="stroke:#1B1B1A;stroke-width:1.0416666666666667;" width="167.7083" x="1580.2083" y="553.7028"/><rect fill="#1B1B1A" height="8.3333" style="stroke:#1B1B1A;stroke-width:1.0416666666666667;" width="167.7083" x="1580.2083" y="576.7578"/><rect codeLine="82" fill="none" height="87.5448" id="Names.Qualification" rx="8.3333" ry="8.3333" style="stroke:#5E5E5E;stroke-width:1.0416666666666667;" width="167.7083" x="1580.2083" y="553.7028"/><ellipse cx="1594.7917" cy="569.397" fill="#CF6300" rx="10.4167" ry="10.4167" style="stroke:#EF8300;stroke-width:1.0416666666666667;"/><path d="M1597.8475,574.0845 L1592.1712,574.0845 L1592.1712,564.9719 L1597.8475,564.9719 L1597.8475,566.5588 L1593.9718,566.5588 L1593.9718,568.5242 L1597.4813,568.5242 L1597.4813,570.1111 L1593.9718,570.1111 L1593.9718,572.4976 L1597.8475,572.4976 Z " fill="#000000"/><text fill="#D8BC00" font-family="Open Sans,Avenir,Nunito,Arial,Helvetica,SansSerif" font-size="12.5" font-weight="bold" lengthAdjust="spacing" textLength="130.2083" x="1611.4583" y="574.1211">Names.Qualification</text><line style="stroke:#5E5E5E;stroke-width:1.0416666666666667;" x1="1581.25" x2="1746.875" y1="585.0911" y2="585.0911"/><text fill="#D8BC00" font-family="Open Sans,Avenir,Nunito,Arial,Helvetica,SansSerif" font-size="11.4583" lengthAdjust="spacing" textLength="59.375" x="1589.5833" y="603.4607">QUALIFIED</text><text fill="#D8BC00" font-family="Open Sans,Avenir,Nunito,Arial,Helvetica,SansSerif" font-size="11.4583" lengthAdjust="spacing" textLength="76.0417" x="1589.5833" y="623.2056">UNQUALIFIED</text><line style="stroke:#5E5E5E;stroke-width:1.0416666666666667;" x1="1581.25" x2="1746.875" y1="632.9142" y2="632.9142"/><rect codeLine="88" fill="#282828" height="87.5448" id="Names.TypeParameters" rx="8.3333" ry="8.3333" style="stroke:#5E5E5E;stroke-width:1.0416666666666667;" width="187.5" x="249.4792" y="878.182"/><rect fill="#1B1B1A" height="31.3883" rx="8.3333" ry="8.3333" style="stroke:#1B1B1A;stroke-width:1.0416666666666667;" width="187.5" x="249.4792" y="878.182"/><rect fill="#1B1B1A" height="8.3333" style="stroke:#1B1B1A;stroke-width:1.0416666666666667;" width="187.5" x="249.4792" y="901.237"/><rect codeLine="88" fill="none" height="87.5448" id="Names.TypeParameters" rx="8.3333" ry="8.3333" style="stroke:#5E5E5E;stroke-width:1.0416666666666667;" width="187.5" x="249.4792" y="878.182"/><ellipse cx="264.0625" cy="893.8761" fill="#CF6300" rx="10.4167" ry="10.4167" style="stroke:#EF8300;stroke-width:1.0416666666666667;"/><path d="M267.1183,898.5636 L261.4421,898.5636 L261.4421,889.4511 L267.1183,889.4511 L267.1183,891.038 L263.2426,891.038 L263.2426,893.0033 L266.7521,893.0033 L266.7521,894.5903 L263.2426,894.5903 L263.2426,896.9767 L267.1183,896.9767 Z " fill="#000000"/><text fill="#D8BC00" font-family="Open Sans,Avenir,Nunito,Arial,Helvetica,SansSerif" font-size="12.5" font-weight="bold" lengthAdjust="spacing" textLength="150" x="280.7292" y="898.6003">Names.TypeParameters</text><line style="stroke:#5E5E5E;stroke-width:1.0416666666666667;" x1="250.5208" x2="435.9375" y1="909.5703" y2="909.5703"/><text fill="#D8BC00" font-family="Open Sans,Avenir,Nunito,Arial,Helvetica,SansSerif" font-size="11.4583" lengthAdjust="spacing" textLength="165.625" x="258.8542" y="927.9399">WITHOUT_TYPE_PARAMETERS</text><text fill="#D8BC00" font-family="Open Sans,Avenir,Nunito,Arial,Helvetica,SansSerif" font-size="11.4583" lengthAdjust="spacing" textLength="140.625" x="258.8542" y="947.6847">WITH_TYPE_PARAMETERS</text><line style="stroke:#5E5E5E;stroke-width:1.0416666666666667;" x1="250.5208" x2="435.9375" y1="957.3934" y2="957.3934"/><rect codeLine="94" fill="#282828" height="273.5819" id="Types" rx="8.3333" ry="8.3333" style="stroke:#5E5E5E;stroke-width:1.0416666666666667;" width="546.875" x="473.9583" y="784.9528"/><rect fill="#1B1B1A" height="31.3883" rx="8.3333" ry="8.3333" style="stroke:#1B1B1A;stroke-width:1.0416666666666667;" width="546.875" x="473.9583" y="784.9528"/><rect fill="#1B1B1A" height="8.3333" style="stroke:#1B1B1A;stroke-width:1.0416666666666667;" width="546.875" x="473.9583" y="808.0078"/><rect codeLine="94" fill="none" height="273.5819" id="Types" rx="8.3333" ry="8.3333" style="stroke:#5E5E5E;stroke-width:1.0416666666666667;" width="546.875" x="473.9583" y="784.9528"/><ellipse cx="720.8333" cy="800.647" fill="#0066CF" rx="10.4167" ry="10.4167" style="stroke:#0086EF;stroke-width:1.0416666666666667;"/><path d="M722.7437,805.072 Q722.3165,805.2917 721.8465,805.4016 Q721.3765,805.5115 720.8577,805.5115 Q719.0145,805.5115 718.044,804.2969 Q717.0736,803.0823 717.0736,800.7874 Q717.0736,798.4863 718.044,797.2717 Q719.0145,796.0571 720.8577,796.0571 Q721.3765,796.0571 721.8526,796.167 Q722.3287,796.2769 722.7437,796.4966 L722.7437,798.4985 Q722.2799,798.0713 721.8435,797.8729 Q721.4071,797.6746 720.9432,797.6746 Q719.9544,797.6746 719.4509,798.4589 Q718.9473,799.2432 718.9473,800.7874 Q718.9473,802.3254 719.4509,803.1097 Q719.9544,803.894 720.9432,803.894 Q721.4071,803.894 721.8435,803.6957 Q722.2799,803.4973 722.7437,803.0701 Z " fill="#000000"/><text fill="#D8BC00" font-family="Open Sans,Avenir,Nunito,Arial,Helvetica,SansSerif" font-size="12.5" font-weight="bold" lengthAdjust="spacing" textLength="38.5417" x="743.75" y="805.3711">Types</text><line style="stroke:#5E5E5E;stroke-width:1.5625;" x1="475" x2="1019.7917" y1="816.3411" y2="816.3411"/><line style="stroke:#5E5E5E;stroke-width:1.0416666666666667;" x1="475" x2="1019.7917" y1="824.6745" y2="824.6745"/><ellipse cx="485.4167" cy="836.1328" fill="#84BE84" rx="3.125" ry="3.125" style="stroke:#038048;stroke-width:1.0416666666666667;"/><text fill="#D8BC00" font-family="Open Sans,Avenir,Nunito,Arial,Helvetica,SansSerif" font-size="11.4583" lengthAdjust="spacing" textLength="183.3333" x="496.875" y="843.044">String type(TypeDeclaration&lt;?&gt;)</text><ellipse cx="485.4167" cy="855.8777" fill="#84BE84" rx="3.125" ry="3.125" style="stroke:#038048;stroke-width:1.0416666666666667;"/><text fill="#D8BC00" font-family="Open Sans,Avenir,Nunito,Arial,Helvetica,SansSerif" font-size="11.4583" lengthAdjust="spacing" textLength="298.9583" x="496.875" y="862.7889">String typeDeclarationModifiers(TypeDeclaration&lt;?&gt;)</text><ellipse cx="485.4167" cy="899.5341" fill="#84BE84" rx="3.125" ry="3.125" style="stroke:#038048;stroke-width:1.0416666666666667;"/><text fill="#D8BC00" font-family="Open Sans,Avenir,Nunito,Arial,Helvetica,SansSerif" font-size="11.4583" lengthAdjust="spacing" textLength="192.7083" x="496.875" y="906.4453">boolean hasTypeParameters(Type)</text><ellipse cx="485.4167" cy="919.279" fill="#84BE84" rx="3.125" ry="3.125" style="stroke:#038048;stroke-width:1.0416666666666667;"/><text fill="#D8BC00" font-family="Open Sans,Avenir,Nunito,Arial,Helvetica,SansSerif" font-size="11.4583" lengthAdjust="spacing" textLength="514.5833" x="496.875" y="926.1902">boolean isExcludedSuperType(TypeDeclaration&lt;?&gt;, LexakaiClassDiagram, String supertype)</text><ellipse cx="485.4167" cy="939.0238" fill="#84BE84" rx="3.125" ry="3.125" style="stroke:#038048;stroke-width:1.0416666666666667;"/><text fill="#D8BC00" font-family="Open Sans,Avenir,Nunito,Arial,Helvetica,SansSerif" font-size="11.4583" lengthAdjust="spacing" textLength="229.1667" x="496.875" y="945.9351">boolean isInterface(TypeDeclaration&lt;?&gt;)</text><ellipse cx="485.4167" cy="958.7687" fill="#84BE84" rx="3.125" ry="3.125" style="stroke:#038048;stroke-width:1.0416666666666667;"/><text fill="#D8BC00" font-family="Open Sans,Avenir,Nunito,Arial,Helvetica,SansSerif" font-size="11.4583" lengthAdjust="spacing" textLength="252.0833" x="496.875" y="965.6799">boolean isNotPublicApi(TypeDeclaration&lt;?&gt;)</text><ellipse cx="485.4167" cy="978.5136" fill="#84BE84" rx="3.125" ry="3.125" style="stroke:#038048;stroke-width:1.0416666666666667;"/><text fill="#D8BC00" font-family="Open Sans,Avenir,Nunito,Arial,Helvetica,SansSerif" font-size="11.4583" lengthAdjust="spacing" textLength="129.1667" x="496.875" y="985.4248">boolean isObject(Type)</text><ellipse cx="485.4167" cy="998.2585" fill="#84BE84" rx="3.125" ry="3.125" style="stroke:#038048;stroke-width:1.0416666666666667;"/><text fill="#D8BC00" font-family="Open Sans,Avenir,Nunito,Arial,Helvetica,SansSerif" font-size="11.4583" lengthAdjust="spacing" textLength="147.9167" x="496.875" y="1005.1697">boolean isReference(Type)</text><line style="stroke:#5E5E5E;stroke-width:1.0416666666666667;" x1="475" x2="720.8333" y1="882.37" y2="882.37"/><text fill="#D8BC00" font-family="Open Sans,Avenir,Nunito,Arial,Helvetica,SansSerif" font-size="11.4583" lengthAdjust="spacing" textLength="46.875" x="723.9583" y="886.1796">(checks)</text><line style="stroke:#5E5E5E;stroke-width:1.0416666666666667;" x1="773.9583" x2="1019.7917" y1="882.37" y2="882.37"/><ellipse cx="485.4167" cy="1041.9149" fill="#84BE84" rx="3.125" ry="3.125" style="stroke:#038048;stroke-width:1.0416666666666667;"/><text fill="#D8BC00" font-family="Open Sans,Avenir,Nunito,Arial,Helvetica,SansSerif" font-size="11.4583" lengthAdjust="spacing" textLength="190.625" x="496.875" y="1048.8261">List&lt;Type&gt; typeParameters(Type)</text><line style="stroke:#5E5E5E;stroke-width:1.0416666666666667;" x1="475" x2="713.0208" y1="1024.7508" y2="1024.7508"/><text fill="#D8BC00" font-family="Open Sans,Avenir,Nunito,Arial,Helvetica,SansSerif" font-size="11.4583" lengthAdjust="spacing" textLength="62.5" x="716.1458" y="1028.5604">(collection)</text><line style="stroke:#5E5E5E;stroke-width:1.0416666666666667;" x1="781.7708" x2="1019.7917" y1="1024.7508" y2="1024.7508"/></g></svg>
