<?xml version="1.0" encoding="UTF-8" standalone="no"?><svg xmlns="http://www.w3.org/2000/svg" xmlns:xlink="http://www.w3.org/1999/xlink" contentScriptType="application/ecmascript" contentStyleType="text/css" height="282.2917px" preserveAspectRatio="none" style="width:317px;height:282px;background:#333333;" version="1.1" viewBox="0 0 317 282" width="317.7083px" zoomAndPan="magnify"><defs/><g><rect fill="#48494B" height="41.2028" rx="8.3333" ry="8.3333" style="stroke:#545454;stroke-width:1.0416666666666667;" width="305.2083" x="2.0833" y="2.0833"/><text fill="#C0C0C0" font-family="Open Sans,Avenir,Nunito,Arial,Helvetica,SansSerif" font-size="20.8333" lengthAdjust="spacing" textLength="282.2917" x="13.5417" y="30.5583">com.telenav.lexakai.indexes</text><rect codeLine="7" fill="#282828" height="48.055" id="BaseComponent" rx="8.3333" ry="8.3333" style="stroke:#5E5E5E;stroke-width:1.0416666666666667;" width="143.75" x="90.1042" y="53.7028"/><rect fill="#1B1B1A" height="31.3883" rx="8.3333" ry="8.3333" style="stroke:#1B1B1A;stroke-width:1.0416666666666667;" width="143.75" x="90.1042" y="53.7028"/><rect fill="#1B1B1A" height="8.3333" style="stroke:#1B1B1A;stroke-width:1.0416666666666667;" width="143.75" x="90.1042" y="76.7578"/><rect codeLine="7" fill="none" height="48.055" id="BaseComponent" rx="8.3333" ry="8.3333" style="stroke:#5E5E5E;stroke-width:1.0416666666666667;" width="143.75" x="90.1042" y="53.7028"/><ellipse cx="104.6875" cy="69.397" fill="#C8AC00" rx="10.4167" ry="10.4167" style="stroke:#D8BC00;stroke-width:1.0416666666666667;"/><path d="M104.2806,66.099 L103.4322,69.8283 L105.1351,69.8283 Z M103.182,64.4511 L105.3853,64.4511 L107.8451,73.5636 L106.0445,73.5636 L105.483,71.3114 L103.0721,71.3114 L102.5228,73.5636 L100.7222,73.5636 Z " fill="#000000"/><text fill="#D8BC00" font-family="Open Sans,Avenir,Nunito,Arial,Helvetica,SansSerif" font-size="12.5" font-style="italic" font-weight="bold" lengthAdjust="spacing" textLength="106.25" x="121.3542" y="74.1211">BaseComponent</text><line style="stroke:#5E5E5E;stroke-width:1.0416666666666667;" x1="91.1458" x2="232.8125" y1="85.0911" y2="85.0911"/><line style="stroke:#5E5E5E;stroke-width:1.0416666666666667;" x1="91.1458" x2="232.8125" y1="93.4245" y2="93.4245"/><rect codeLine="10" fill="#282828" height="111.4563" id="ReadMeUpdater" rx="8.3333" ry="8.3333" style="stroke:#5E5E5E;stroke-width:1.0416666666666667;" width="208.3333" x="57.8125" y="164.1195"/><rect fill="#1B1B1A" height="31.3883" rx="8.3333" ry="8.3333" style="stroke:#1B1B1A;stroke-width:1.0416666666666667;" width="208.3333" x="57.8125" y="164.1195"/><rect fill="#1B1B1A" height="8.3333" style="stroke:#1B1B1A;stroke-width:1.0416666666666667;" width="208.3333" x="57.8125" y="187.1745"/><rect codeLine="10" fill="none" height="111.4563" id="ReadMeUpdater" rx="8.3333" ry="8.3333" style="stroke:#5E5E5E;stroke-width:1.0416666666666667;" width="208.3333" x="57.8125" y="164.1195"/><ellipse cx="104.1667" cy="179.8136" fill="#0066CF" rx="10.4167" ry="10.4167" style="stroke:#0086EF;stroke-width:1.0416666666666667;"/><path d="M106.0771,184.2387 Q105.6498,184.4584 105.1799,184.5683 Q104.7099,184.6781 104.1911,184.6781 Q102.3478,184.6781 101.3774,183.4635 Q100.4069,182.2489 100.4069,179.954 Q100.4069,177.653 101.3774,176.4384 Q102.3478,175.2238 104.1911,175.2238 Q104.7099,175.2238 105.186,175.3337 Q105.662,175.4435 106.0771,175.6632 L106.0771,177.6652 Q105.6132,177.238 105.1768,177.0396 Q104.7404,176.8412 104.2765,176.8412 Q103.2878,176.8412 102.7842,177.6255 Q102.2807,178.4098 102.2807,179.954 Q102.2807,181.4921 102.7842,182.2764 Q103.2878,183.0607 104.2765,183.0607 Q104.7404,183.0607 105.1768,182.8623 Q105.6132,182.664 106.0771,182.2367 Z " fill="#000000"/><text fill="#D8BC00" font-family="Open Sans,Avenir,Nunito,Arial,Helvetica,SansSerif" font-size="12.5" font-weight="bold" lengthAdjust="spacing" textLength="101.0417" x="127.0833" y="184.5378">ReadMeUpdater</text><line style="stroke:#5E5E5E;stroke-width:1.5625;" x1="58.8542" x2="265.1042" y1="195.5078" y2="195.5078"/><ellipse cx="69.2708" cy="230.8777" fill="#84BE84" rx="3.125" ry="3.125" style="stroke:#038048;stroke-width:1.0416666666666667;"/><text fill="#D8BC00" font-family="Open Sans,Avenir,Nunito,Arial,Helvetica,SansSerif" font-size="11.4583" lengthAdjust="spacing" textLength="176.0417" x="80.7292" y="237.7889">ReadMeUpdater(LexakaiProject)</text><line style="stroke:#5E5E5E;stroke-width:1.0416666666666667;" x1="58.8542" x2="118.2292" y1="213.7136" y2="213.7136"/><text fill="#D8BC00" font-family="Open Sans,Avenir,Nunito,Arial,Helvetica,SansSerif" font-size="11.4583" lengthAdjust="spacing" textLength="81.25" x="121.3542" y="217.5232">(constructors)</text><line style="stroke:#5E5E5E;stroke-width:1.0416666666666667;" x1="205.7292" x2="265.1042" y1="213.7136" y2="213.7136"/><line style="stroke:#5E5E5E;stroke-width:1.0416666666666667;" x1="58.8542" x2="265.1042" y1="247.4976" y2="247.4976"/><ellipse cx="69.2708" cy="258.9559" fill="#84BE84" rx="3.125" ry="3.125" style="stroke:#038048;stroke-width:1.0416666666666667;"/><text fill="#D8BC00" font-family="Open Sans,Avenir,Nunito,Arial,Helvetica,SansSerif" font-size="11.4583" lengthAdjust="spacing" textLength="73.9583" x="80.7292" y="265.8671">void update()</text><path codeLine="9" d="M161.9792,122.7028 C161.9792,135.7549 161.9792,150.2028 161.9792,163.859 " fill="none" id="BaseComponent-backto-ReadMeUpdater" style="stroke:#545454;stroke-width:1.5625;"/><polygon fill="none" points="154.6875,122.6715,161.9792,101.8382,169.2708,122.6715,154.6875,122.6715" style="stroke:#545454;stroke-width:1.5625;"/></g></svg>
