<?xml version="1.0" encoding="UTF-8" standalone="no"?><svg xmlns="http://www.w3.org/2000/svg" xmlns:xlink="http://www.w3.org/1999/xlink" contentScriptType="application/ecmascript" contentStyleType="text/css" height="108.3333px" preserveAspectRatio="none" style="width:361px;height:108px;background:#333333;" version="1.1" viewBox="0 0 361 108" width="361.4583px" zoomAndPan="magnify"><defs/><g><rect fill="#48494B" height="41.2028" rx="8.3333" ry="8.3333" style="stroke:#545454;stroke-width:1.0416666666666667;" width="348.9583" x="2.0833" y="2.0833"/><text fill="#C0C0C0" font-family="Open Sans,Avenir,Nunito,Arial,Helvetica,SansSerif" font-size="20.8333" lengthAdjust="spacing" textLength="326.0417" x="13.5417" y="30.5583">com.telenav.xlexakai.standalone</text><rect codeLine="7" fill="#282828" height="48.055" id="Placeholder" rx="8.3333" ry="8.3333" style="stroke:#5E5E5E;stroke-width:1.0416666666666667;" width="111.4583" x="121.3542" y="53.7028"/><rect fill="#1B1B1A" height="31.3883" rx="8.3333" ry="8.3333" style="stroke:#1B1B1A;stroke-width:1.0416666666666667;" width="111.4583" x="121.3542" y="53.7028"/><rect fill="#1B1B1A" height="8.3333" style="stroke:#1B1B1A;stroke-width:1.0416666666666667;" width="111.4583" x="121.3542" y="76.7578"/><rect codeLine="7" fill="none" height="48.055" id="Placeholder" rx="8.3333" ry="8.3333" style="stroke:#5E5E5E;stroke-width:1.0416666666666667;" width="111.4583" x="121.3542" y="53.7028"/><ellipse cx="135.9375" cy="69.397" fill="#0066CF" rx="10.4167" ry="10.4167" style="stroke:#0086EF;stroke-width:1.0416666666666667;"/><path d="M137.8479,73.822 Q137.4207,74.0417 136.9507,74.1516 Q136.4807,74.2615 135.9619,74.2615 Q134.1187,74.2615 133.1482,73.0469 Q132.1777,71.8323 132.1777,69.5374 Q132.1777,67.2363 133.1482,66.0217 Q134.1187,64.8071 135.9619,64.8071 Q136.4807,64.8071 136.9568,64.917 Q137.4329,65.0269 137.8479,65.2466 L137.8479,67.2485 Q137.384,66.8213 136.9476,66.6229 Q136.5112,66.4246 136.0474,66.4246 Q135.0586,66.4246 134.5551,67.2089 Q134.0515,67.9932 134.0515,69.5374 Q134.0515,71.0754 134.5551,71.8597 Q135.0586,72.644 136.0474,72.644 Q136.5112,72.644 136.9476,72.4457 Q137.384,72.2473 137.8479,71.8201 Z " fill="#000000"/><text fill="#D8BC00" font-family="Open Sans,Avenir,Nunito,Arial,Helvetica,SansSerif" font-size="12.5" font-weight="bold" lengthAdjust="spacing" textLength="73.9583" x="152.6042" y="74.1211">Placeholder</text><line style="stroke:#5E5E5E;stroke-width:1.0416666666666667;" x1="122.3958" x2="231.7708" y1="85.0911" y2="85.0911"/><line style="stroke:#5E5E5E;stroke-width:1.0416666666666667;" x1="122.3958" x2="231.7708" y1="93.4245" y2="93.4245"/></g></svg>
